<svg width="1000.0" height="500.0" xmlns="http://www.w3.org/2000/svg">
  <g transform="translate(265.0, 250.0) scale(235.0, -235.0)">
    <line x1="0.0" y1="1.0" x2="-1.0" y2="1.0" stroke="rgb( 255, 192, 192 )" stroke-width="0.012765957446808512"/>
    <line x1="2.0" y1="1.0" x2="1.0" y2="1.0" stroke="rgb( 255, 192, 192 )" stroke-width="0.012765957446808512"/>
    <line x1="3.0" y1="0.0" x2="3.0" y2="1.0" stroke="rgb( 255, 192, 192 )" stroke-width="0.012765957446808512"/>
    <line x1="2.0" y1="-1.0" x2="3.0" y2="-1.0" stroke="rgb( 255, 192, 192 )" stroke-width="0.012765957446808512"/>
    <line x1="0.0" y1="-1.0" x2="1.0" y2="-1.0" stroke="rgb( 255, 192, 192 )" stroke-width="0.012765957446808512"/>
    <line x1="-1.0" y1="0.0" x2="-1.0" y2="-1.0" stroke="rgb( 255, 192, 192 )" stroke-width="0.012765957446808512"/>
    <line x1="0.0" y1="1.0" x2="1.0" y2="1.0" stroke="rgb( 192, 192, 255 )" stroke-width="0.012765957446808512"/>
    <line x1="2.0" y1="1.0" x2="3.0" y2="1.0" stroke="rgb( 192, 192, 255 )" stroke-width="0.012765957446808512"/>
    <line x1="3.0" y1="0.0" x2="3.0" y2="-1.0" stroke="rgb( 192, 192, 255 )" stroke-width="0.012765957446808512"/>
    <line x1="2.0" y1="-1.0" x2="1.0" y2="-1.0" stroke="rgb( 192, 192, 255 )" stroke-width="0.012765957446808512"/>
    <line x1="0.0" y1="-1.0" x2="-1.0" y2="-1.0" stroke="rgb( 192, 192, 255 )" stroke-width="0.012765957446808512"/>
    <line x1="-1.0" y1="0.0" x2="-1.0" y2="1.0" stroke="rgb( 192, 192, 255 )" stroke-width="0.012765957446808512"/>
    <circle cx="0.0" cy="1.0" r="0.05106382978723405" fill="rgb( 255, 128, 255 )"/>
    <circle cx="2.0" cy="1.0" r="0.05106382978723405" fill="rgb( 255, 128, 255 )"/>
    <circle cx="3.0" cy="0.0" r="0.05106382978723405" fill="rgb( 255, 128, 255 )"/>
    <circle cx="2.0" cy="-1.0" r="0.05106382978723405" fill="rgb( 255, 128, 255 )"/>
    <circle cx="0.0" cy="-1.0" r="0.05106382978723405" fill="rgb( 255, 128, 255 )"/>
    <circle cx="-1.0" cy="0.0" r="0.05106382978723405" fill="rgb( 255, 128, 255 )"/>
    <circle cx="0.0" cy="1.0" r="0.025531914893617023" fill="rgb( 0, 0, 255 )"/>
    <circle cx="0.10037042018879917" cy="1.0" r="0.025531914893617023" fill="rgb( 0, 0, 255 )"/>
    <circle cx="0.23365396477444728" cy="1.0" r="0.025531914893617023" fill="rgb( 0, 0, 255 )"/>
    <circle cx="0.3964466094067262" cy="1.0" r="0.025531914893617023" fill="rgb( 0, 0, 255 )"/>
    <circle cx="0.5833333333333333" cy="1.0" r="0.025531914893617023" fill="rgb( 0, 0, 255 )"/>
    <circle cx="0.7872571441154061" cy="1.0" r="0.025531914893617023" fill="rgb( 0, 0, 255 )"/>
    <circle cx="1.0" cy="1.0" r="0.025531914893617023" fill="rgb( 0, 0, 255 )"/>
    <circle cx="1.2127428558845934" cy="1.0" r="0.025531914893617023" fill="rgb( 0, 0, 255 )"/>
    <circle cx="1.4166666666666665" cy="1.0" r="0.025531914893617023" fill="rgb( 0, 0, 255 )"/>
    <circle cx="1.6035533905932737" cy="1.0" r="0.025531914893617023" fill="rgb( 0, 0, 255 )"/>
    <circle cx="1.7663460352255524" cy="1.0" r="0.025531914893617023" fill="rgb( 0, 0, 255 )"/>
    <circle cx="1.8996295798112006" cy="1.0" r="0.025531914893617023" fill="rgb( 0, 0, 255 )"/>
    <circle cx="2.0" cy="1.0" r="0.025531914893617023" fill="rgb( 0, 0, 255 )"/>
    <circle cx="2.0" cy="1.0" r="0.025531914893617023" fill="rgb( 0, 0, 255 )"/>
    <circle cx="2.098950662950844" cy="0.9985802427620445" r="0.025531914893617023" fill="rgb( 0, 0, 255 )"/>
    <circle cx="2.222489415089817" cy="0.9888354503153699" r="0.025531914893617023" fill="rgb( 0, 0, 255 )"/>
    <circle cx="2.3598349570550448" cy="0.9633883476483185" r="0.025531914893617023" fill="rgb( 0, 0, 255 )"/>
    <circle cx="2.5" cy="0.9166666666666667" r="0.025531914893617023" fill="rgb( 0, 0, 255 )"/>
    <circle cx="2.6328444451784314" cy="0.8455873010630253" r="0.025531914893617023" fill="rgb( 0, 0, 255 )"/>
    <circle cx="2.75" cy="0.75" r="0.025531914893617023" fill="rgb( 0, 0, 255 )"/>
    <circle cx="2.845587301063025" cy="0.6328444451784316" r="0.025531914893617023" fill="rgb( 0, 0, 255 )"/>
    <circle cx="2.9166666666666665" cy="0.5000000000000001" r="0.025531914893617023" fill="rgb( 0, 0, 255 )"/>
    <circle cx="2.9633883476483183" cy="0.35983495705504476" r="0.025531914893617023" fill="rgb( 0, 0, 255 )"/>
    <circle cx="2.98883545031537" cy="0.22248941508981745" r="0.025531914893617023" fill="rgb( 0, 0, 255 )"/>
    <circle cx="2.9985802427620447" cy="0.09895066295084376" r="0.025531914893617023" fill="rgb( 0, 0, 255 )"/>
    <circle cx="3.0" cy="0.0" r="0.025531914893617023" fill="rgb( 0, 0, 255 )"/>
    <circle cx="3.0" cy="0.0" r="0.025531914893617023" fill="rgb( 0, 0, 255 )"/>
    <circle cx="2.9985802427620447" cy="-0.09895066295084369" r="0.025531914893617023" fill="rgb( 0, 0, 255 )"/>
    <circle cx="2.98883545031537" cy="-0.2224894150898172" r="0.025531914893617023" fill="rgb( 0, 0, 255 )"/>
    <circle cx="2.9633883476483183" cy="-0.35983495705504465" r="0.025531914893617023" fill="rgb( 0, 0, 255 )"/>
    <circle cx="2.916666666666667" cy="-0.5" r="0.025531914893617023" fill="rgb( 0, 0, 255 )"/>
    <circle cx="2.8455873010630253" cy="-0.6328444451784314" r="0.025531914893617023" fill="rgb( 0, 0, 255 )"/>
    <circle cx="2.75" cy="-0.75" r="0.025531914893617023" fill="rgb( 0, 0, 255 )"/>
    <circle cx="2.632844445178432" cy="-0.845587301063025" r="0.025531914893617023" fill="rgb( 0, 0, 255 )"/>
    <circle cx="2.5" cy="-0.9166666666666666" r="0.025531914893617023" fill="rgb( 0, 0, 255 )"/>
    <circle cx="2.3598349570550448" cy="-0.9633883476483185" r="0.025531914893617023" fill="rgb( 0, 0, 255 )"/>
    <circle cx="2.2224894150898176" cy="-0.9888354503153698" r="0.025531914893617023" fill="rgb( 0, 0, 255 )"/>
    <circle cx="2.098950662950844" cy="-0.9985802427620445" r="0.025531914893617023" fill="rgb( 0, 0, 255 )"/>
    <circle cx="2.0" cy="-1.0" r="0.025531914893617023" fill="rgb( 0, 0, 255 )"/>
    <circle cx="2.0" cy="-1.0" r="0.025531914893617023" fill="rgb( 0, 0, 255 )"/>
    <circle cx="1.8996295798112008" cy="-1.0" r="0.025531914893617023" fill="rgb( 0, 0, 255 )"/>
    <circle cx="1.7663460352255527" cy="-1.0" r="0.025531914893617023" fill="rgb( 0, 0, 255 )"/>
    <circle cx="1.6035533905932737" cy="-1.0" r="0.025531914893617023" fill="rgb( 0, 0, 255 )"/>
    <circle cx="1.4166666666666667" cy="-1.0" r="0.025531914893617023" fill="rgb( 0, 0, 255 )"/>
    <circle cx="1.2127428558845939" cy="-1.0" r="0.025531914893617023" fill="rgb( 0, 0, 255 )"/>
    <circle cx="1.0" cy="-1.0" r="0.025531914893617023" fill="rgb( 0, 0, 255 )"/>
    <circle cx="0.7872571441154066" cy="-1.0" r="0.025531914893617023" fill="rgb( 0, 0, 255 )"/>
    <circle cx="0.5833333333333336" cy="-1.0" r="0.025531914893617023" fill="rgb( 0, 0, 255 )"/>
    <circle cx="0.39644660940672627" cy="-1.0" r="0.025531914893617023" fill="rgb( 0, 0, 255 )"/>
    <circle cx="0.23365396477444755" cy="-1.0" r="0.025531914893617023" fill="rgb( 0, 0, 255 )"/>
    <circle cx="0.10037042018879938" cy="-1.0" r="0.025531914893617023" fill="rgb( 0, 0, 255 )"/>
    <circle cx="0.0" cy="-1.0" r="0.025531914893617023" fill="rgb( 0, 0, 255 )"/>
    <circle cx="0.0" cy="-1.0" r="0.025531914893617023" fill="rgb( 0, 0, 255 )"/>
    <circle cx="-0.09895066295084369" cy="-0.9985802427620445" r="0.025531914893617023" fill="rgb( 0, 0, 255 )"/>
    <circle cx="-0.2224894150898172" cy="-0.9888354503153699" r="0.025531914893617023" fill="rgb( 0, 0, 255 )"/>
    <circle cx="-0.35983495705504465" cy="-0.9633883476483185" r="0.025531914893617023" fill="rgb( 0, 0, 255 )"/>
    <circle cx="-0.5" cy="-0.9166666666666667" r="0.025531914893617023" fill="rgb( 0, 0, 255 )"/>
    <circle cx="-0.6328444451784314" cy="-0.8455873010630253" r="0.025531914893617023" fill="rgb( 0, 0, 255 )"/>
    <circle cx="-0.75" cy="-0.75" r="0.025531914893617023" fill="rgb( 0, 0, 255 )"/>
    <circle cx="-0.845587301063025" cy="-0.6328444451784316" r="0.025531914893617023" fill="rgb( 0, 0, 255 )"/>
    <circle cx="-0.9166666666666666" cy="-0.5000000000000001" r="0.025531914893617023" fill="rgb( 0, 0, 255 )"/>
    <circle cx="-0.9633883476483185" cy="-0.35983495705504476" r="0.025531914893617023" fill="rgb( 0, 0, 255 )"/>
    <circle cx="-0.9888354503153698" cy="-0.22248941508981745" r="0.025531914893617023" fill="rgb( 0, 0, 255 )"/>
    <circle cx="-0.9985802427620445" cy="-0.09895066295084376" r="0.025531914893617023" fill="rgb( 0, 0, 255 )"/>
    <circle cx="-1.0" cy="0.0" r="0.025531914893617023" fill="rgb( 0, 0, 255 )"/>
    <circle cx="-1.0" cy="0.0" r="0.025531914893617023" fill="rgb( 0, 0, 255 )"/>
    <circle cx="-0.9985802427620445" cy="0.09895066295084369" r="0.025531914893617023" fill="rgb( 0, 0, 255 )"/>
    <circle cx="-0.9888354503153699" cy="0.2224894150898172" r="0.025531914893617023" fill="rgb( 0, 0, 255 )"/>
    <circle cx="-0.9633883476483185" cy="0.35983495705504465" r="0.025531914893617023" fill="rgb( 0, 0, 255 )"/>
    <circle cx="-0.9166666666666667" cy="0.5" r="0.025531914893617023" fill="rgb( 0, 0, 255 )"/>
    <circle cx="-0.8455873010630253" cy="0.6328444451784314" r="0.025531914893617023" fill="rgb( 0, 0, 255 )"/>
    <circle cx="-0.75" cy="0.75" r="0.025531914893617023" fill="rgb( 0, 0, 255 )"/>
    <circle cx="-0.6328444451784316" cy="0.845587301063025" r="0.025531914893617023" fill="rgb( 0, 0, 255 )"/>
    <circle cx="-0.5000000000000001" cy="0.9166666666666666" r="0.025531914893617023" fill="rgb( 0, 0, 255 )"/>
    <circle cx="-0.35983495705504476" cy="0.9633883476483185" r="0.025531914893617023" fill="rgb( 0, 0, 255 )"/>
    <circle cx="-0.22248941508981745" cy="0.9888354503153698" r="0.025531914893617023" fill="rgb( 0, 0, 255 )"/>
    <circle cx="-0.09895066295084376" cy="0.9985802427620445" r="0.025531914893617023" fill="rgb( 0, 0, 255 )"/>
    <circle cx="0.0" cy="1.0" r="0.025531914893617023" fill="rgb( 0, 0, 255 )"/>
  </g>
</svg>
