<svg width="1000.0" height="1000.0" xmlns="http://www.w3.org/2000/svg">
  <g transform="translate(500.0, 500.0) scale(485.0, -485.0)">
    <line x1="0.0" y1="1.0" x2="-1.0" y2="1.0" stroke="rgb( 255, 192, 192 )" stroke-width="0.006185567010309279"/>
    <line x1="1.0" y1="0.0" x2="1.0" y2="1.0" stroke="rgb( 255, 192, 192 )" stroke-width="0.006185567010309279"/>
    <line x1="0.0" y1="-1.0" x2="1.0" y2="-1.0" stroke="rgb( 255, 192, 192 )" stroke-width="0.006185567010309279"/>
    <line x1="-1.0" y1="0.0" x2="-1.0" y2="-1.0" stroke="rgb( 255, 192, 192 )" stroke-width="0.006185567010309279"/>
    <line x1="0.0" y1="1.0" x2="1.0" y2="1.0" stroke="rgb( 192, 192, 255 )" stroke-width="0.006185567010309279"/>
    <line x1="1.0" y1="0.0" x2="1.0" y2="-1.0" stroke="rgb( 192, 192, 255 )" stroke-width="0.006185567010309279"/>
    <line x1="0.0" y1="-1.0" x2="-1.0" y2="-1.0" stroke="rgb( 192, 192, 255 )" stroke-width="0.006185567010309279"/>
    <line x1="-1.0" y1="0.0" x2="-1.0" y2="1.0" stroke="rgb( 192, 192, 255 )" stroke-width="0.006185567010309279"/>
    <circle cx="0.0" cy="1.0" r="0.024742268041237116" fill="rgb( 255, 128, 255 )"/>
    <circle cx="1.0" cy="0.0" r="0.024742268041237116" fill="rgb( 255, 128, 255 )"/>
    <circle cx="0.0" cy="-1.0" r="0.024742268041237116" fill="rgb( 255, 128, 255 )"/>
    <circle cx="-1.0" cy="0.0" r="0.024742268041237116" fill="rgb( 255, 128, 255 )"/>
    <circle cx="6.123233995736766e-17" cy="1.0" r="0.012371134020618558" fill="rgb( 0, 0, 255 )"/>
    <circle cx="0.1305261922200517" cy="0.9914448613738104" r="0.012371134020618558" fill="rgb( 0, 0, 255 )"/>
    <circle cx="0.25881904510252074" cy="0.9659258262890683" r="0.012371134020618558" fill="rgb( 0, 0, 255 )"/>
    <circle cx="0.38268343236508984" cy="0.9238795325112867" r="0.012371134020618558" fill="rgb( 0, 0, 255 )"/>
    <circle cx="0.4999999999999999" cy="0.8660254037844387" r="0.012371134020618558" fill="rgb( 0, 0, 255 )"/>
    <circle cx="0.6087614290087207" cy="0.7933533402912352" r="0.012371134020618558" fill="rgb( 0, 0, 255 )"/>
    <circle cx="0.7071067811865476" cy="0.7071067811865476" r="0.012371134020618558" fill="rgb( 0, 0, 255 )"/>
    <circle cx="0.793353340291235" cy="0.6087614290087208" r="0.012371134020618558" fill="rgb( 0, 0, 255 )"/>
    <circle cx="0.8660254037844386" cy="0.5" r="0.012371134020618558" fill="rgb( 0, 0, 255 )"/>
    <circle cx="0.9238795325112867" cy="0.3826834323650898" r="0.012371134020618558" fill="rgb( 0, 0, 255 )"/>
    <circle cx="0.9659258262890683" cy="0.25881904510252085" r="0.012371134020618558" fill="rgb( 0, 0, 255 )"/>
    <circle cx="0.9914448613738104" cy="0.13052619222005163" r="0.012371134020618558" fill="rgb( 0, 0, 255 )"/>
    <circle cx="1.0" cy="0.0" r="0.012371134020618558" fill="rgb( 0, 0, 255 )"/>
    <circle cx="1.0" cy="-6.123233995736766e-17" r="0.012371134020618558" fill="rgb( 0, 0, 255 )"/>
    <circle cx="0.9914448613738104" cy="-0.1305261922200517" r="0.012371134020618558" fill="rgb( 0, 0, 255 )"/>
    <circle cx="0.9659258262890683" cy="-0.25881904510252074" r="0.012371134020618558" fill="rgb( 0, 0, 255 )"/>
    <circle cx="0.9238795325112867" cy="-0.38268343236508984" r="0.012371134020618558" fill="rgb( 0, 0, 255 )"/>
    <circle cx="0.8660254037844387" cy="-0.4999999999999999" r="0.012371134020618558" fill="rgb( 0, 0, 255 )"/>
    <circle cx="0.7933533402912352" cy="-0.6087614290087207" r="0.012371134020618558" fill="rgb( 0, 0, 255 )"/>
    <circle cx="0.7071067811865476" cy="-0.7071067811865476" r="0.012371134020618558" fill="rgb( 0, 0, 255 )"/>
    <circle cx="0.6087614290087208" cy="-0.793353340291235" r="0.012371134020618558" fill="rgb( 0, 0, 255 )"/>
    <circle cx="0.5" cy="-0.8660254037844386" r="0.012371134020618558" fill="rgb( 0, 0, 255 )"/>
    <circle cx="0.3826834323650898" cy="-0.9238795325112867" r="0.012371134020618558" fill="rgb( 0, 0, 255 )"/>
    <circle cx="0.25881904510252085" cy="-0.9659258262890683" r="0.012371134020618558" fill="rgb( 0, 0, 255 )"/>
    <circle cx="0.13052619222005163" cy="-0.9914448613738104" r="0.012371134020618558" fill="rgb( 0, 0, 255 )"/>
    <circle cx="0.0" cy="-1.0" r="0.012371134020618558" fill="rgb( 0, 0, 255 )"/>
    <circle cx="-6.123233995736766e-17" cy="-1.0" r="0.012371134020618558" fill="rgb( 0, 0, 255 )"/>
    <circle cx="-0.1305261922200517" cy="-0.9914448613738104" r="0.012371134020618558" fill="rgb( 0, 0, 255 )"/>
    <circle cx="-0.25881904510252074" cy="-0.9659258262890683" r="0.012371134020618558" fill="rgb( 0, 0, 255 )"/>
    <circle cx="-0.38268343236508984" cy="-0.9238795325112867" r="0.012371134020618558" fill="rgb( 0, 0, 255 )"/>
    <circle cx="-0.4999999999999999" cy="-0.8660254037844387" r="0.012371134020618558" fill="rgb( 0, 0, 255 )"/>
    <circle cx="-0.6087614290087207" cy="-0.7933533402912352" r="0.012371134020618558" fill="rgb( 0, 0, 255 )"/>
    <circle cx="-0.7071067811865476" cy="-0.7071067811865476" r="0.012371134020618558" fill="rgb( 0, 0, 255 )"/>
    <circle cx="-0.793353340291235" cy="-0.6087614290087208" r="0.012371134020618558" fill="rgb( 0, 0, 255 )"/>
    <circle cx="-0.8660254037844386" cy="-0.5" r="0.012371134020618558" fill="rgb( 0, 0, 255 )"/>
    <circle cx="-0.9238795325112867" cy="-0.3826834323650898" r="0.012371134020618558" fill="rgb( 0, 0, 255 )"/>
    <circle cx="-0.9659258262890683" cy="-0.25881904510252085" r="0.012371134020618558" fill="rgb( 0, 0, 255 )"/>
    <circle cx="-0.9914448613738104" cy="-0.13052619222005163" r="0.012371134020618558" fill="rgb( 0, 0, 255 )"/>
    <circle cx="-1.0" cy="0.0" r="0.012371134020618558" fill="rgb( 0, 0, 255 )"/>
    <circle cx="-1.0" cy="6.123233995736766e-17" r="0.012371134020618558" fill="rgb( 0, 0, 255 )"/>
    <circle cx="-0.9914448613738104" cy="0.1305261922200517" r="0.012371134020618558" fill="rgb( 0, 0, 255 )"/>
    <circle cx="-0.9659258262890683" cy="0.25881904510252074" r="0.012371134020618558" fill="rgb( 0, 0, 255 )"/>
    <circle cx="-0.9238795325112867" cy="0.38268343236508984" r="0.012371134020618558" fill="rgb( 0, 0, 255 )"/>
    <circle cx="-0.8660254037844387" cy="0.4999999999999999" r="0.012371134020618558" fill="rgb( 0, 0, 255 )"/>
    <circle cx="-0.7933533402912352" cy="0.6087614290087207" r="0.012371134020618558" fill="rgb( 0, 0, 255 )"/>
    <circle cx="-0.7071067811865476" cy="0.7071067811865476" r="0.012371134020618558" fill="rgb( 0, 0, 255 )"/>
    <circle cx="-0.6087614290087208" cy="0.793353340291235" r="0.012371134020618558" fill="rgb( 0, 0, 255 )"/>
    <circle cx="-0.5" cy="0.8660254037844386" r="0.012371134020618558" fill="rgb( 0, 0, 255 )"/>
    <circle cx="-0.3826834323650898" cy="0.9238795325112867" r="0.012371134020618558" fill="rgb( 0, 0, 255 )"/>
    <circle cx="-0.25881904510252085" cy="0.9659258262890683" r="0.012371134020618558" fill="rgb( 0, 0, 255 )"/>
    <circle cx="-0.13052619222005163" cy="0.9914448613738104" r="0.012371134020618558" fill="rgb( 0, 0, 255 )"/>
    <circle cx="0.0" cy="1.0" r="0.012371134020618558" fill="rgb( 0, 0, 255 )"/>
  </g>
</svg>
