<svg width="1000.0" height="1000.0" xmlns="http://www.w3.org/2000/svg">
  <g transform="translate(500.0, 500.0) scale(485.0, -485.0)">
    <line x1="0.0" y1="1.0" x2="-1.0" y2="1.0" stroke="rgb( 255, 192, 192 )" stroke-width="0.006185567010309279"/>
    <line x1="1.0" y1="0.0" x2="1.0" y2="1.0" stroke="rgb( 255, 192, 192 )" stroke-width="0.006185567010309279"/>
    <line x1="0.0" y1="-1.0" x2="1.0" y2="-1.0" stroke="rgb( 255, 192, 192 )" stroke-width="0.006185567010309279"/>
    <line x1="-1.0" y1="0.0" x2="-1.0" y2="-1.0" stroke="rgb( 255, 192, 192 )" stroke-width="0.006185567010309279"/>
    <line x1="0.0" y1="1.0" x2="1.0" y2="1.0" stroke="rgb( 192, 192, 255 )" stroke-width="0.006185567010309279"/>
    <line x1="1.0" y1="0.0" x2="1.0" y2="-1.0" stroke="rgb( 192, 192, 255 )" stroke-width="0.006185567010309279"/>
    <line x1="0.0" y1="-1.0" x2="-1.0" y2="-1.0" stroke="rgb( 192, 192, 255 )" stroke-width="0.006185567010309279"/>
    <line x1="-1.0" y1="0.0" x2="-1.0" y2="1.0" stroke="rgb( 192, 192, 255 )" stroke-width="0.006185567010309279"/>
    <circle cx="0.0" cy="1.0" r="0.024742268041237116" fill="rgb( 255, 128, 255 )"/>
    <circle cx="1.0" cy="0.0" r="0.024742268041237116" fill="rgb( 255, 128, 255 )"/>
    <circle cx="0.0" cy="-1.0" r="0.024742268041237116" fill="rgb( 255, 128, 255 )"/>
    <circle cx="-1.0" cy="0.0" r="0.024742268041237116" fill="rgb( 255, 128, 255 )"/>
    <circle cx="0.0" cy="1.0" r="0.012371134020618558" fill="rgb( 0, 0, 255 )"/>
    <circle cx="0.09895066295084369" cy="0.9985802427620445" r="0.012371134020618558" fill="rgb( 0, 0, 255 )"/>
    <circle cx="0.2224894150898172" cy="0.9888354503153699" r="0.012371134020618558" fill="rgb( 0, 0, 255 )"/>
    <circle cx="0.35983495705504465" cy="0.9633883476483185" r="0.012371134020618558" fill="rgb( 0, 0, 255 )"/>
    <circle cx="0.5" cy="0.9166666666666667" r="0.012371134020618558" fill="rgb( 0, 0, 255 )"/>
    <circle cx="0.6328444451784314" cy="0.8455873010630253" r="0.012371134020618558" fill="rgb( 0, 0, 255 )"/>
    <circle cx="0.75" cy="0.75" r="0.012371134020618558" fill="rgb( 0, 0, 255 )"/>
    <circle cx="0.845587301063025" cy="0.6328444451784316" r="0.012371134020618558" fill="rgb( 0, 0, 255 )"/>
    <circle cx="0.9166666666666666" cy="0.5000000000000001" r="0.012371134020618558" fill="rgb( 0, 0, 255 )"/>
    <circle cx="0.9633883476483185" cy="0.35983495705504476" r="0.012371134020618558" fill="rgb( 0, 0, 255 )"/>
    <circle cx="0.9888354503153698" cy="0.22248941508981745" r="0.012371134020618558" fill="rgb( 0, 0, 255 )"/>
    <circle cx="0.9985802427620445" cy="0.09895066295084376" r="0.012371134020618558" fill="rgb( 0, 0, 255 )"/>
    <circle cx="1.0" cy="0.0" r="0.012371134020618558" fill="rgb( 0, 0, 255 )"/>
    <circle cx="1.0" cy="0.0" r="0.012371134020618558" fill="rgb( 0, 0, 255 )"/>
    <circle cx="0.9985802427620445" cy="-0.09895066295084369" r="0.012371134020618558" fill="rgb( 0, 0, 255 )"/>
    <circle cx="0.9888354503153699" cy="-0.2224894150898172" r="0.012371134020618558" fill="rgb( 0, 0, 255 )"/>
    <circle cx="0.9633883476483185" cy="-0.35983495705504465" r="0.012371134020618558" fill="rgb( 0, 0, 255 )"/>
    <circle cx="0.9166666666666667" cy="-0.5" r="0.012371134020618558" fill="rgb( 0, 0, 255 )"/>
    <circle cx="0.8455873010630253" cy="-0.6328444451784314" r="0.012371134020618558" fill="rgb( 0, 0, 255 )"/>
    <circle cx="0.75" cy="-0.75" r="0.012371134020618558" fill="rgb( 0, 0, 255 )"/>
    <circle cx="0.6328444451784316" cy="-0.845587301063025" r="0.012371134020618558" fill="rgb( 0, 0, 255 )"/>
    <circle cx="0.5000000000000001" cy="-0.9166666666666666" r="0.012371134020618558" fill="rgb( 0, 0, 255 )"/>
    <circle cx="0.35983495705504476" cy="-0.9633883476483185" r="0.012371134020618558" fill="rgb( 0, 0, 255 )"/>
    <circle cx="0.22248941508981745" cy="-0.9888354503153698" r="0.012371134020618558" fill="rgb( 0, 0, 255 )"/>
    <circle cx="0.09895066295084376" cy="-0.9985802427620445" r="0.012371134020618558" fill="rgb( 0, 0, 255 )"/>
    <circle cx="0.0" cy="-1.0" r="0.012371134020618558" fill="rgb( 0, 0, 255 )"/>
    <circle cx="0.0" cy="-1.0" r="0.012371134020618558" fill="rgb( 0, 0, 255 )"/>
    <circle cx="-0.09895066295084369" cy="-0.9985802427620445" r="0.012371134020618558" fill="rgb( 0, 0, 255 )"/>
    <circle cx="-0.2224894150898172" cy="-0.9888354503153699" r="0.012371134020618558" fill="rgb( 0, 0, 255 )"/>
    <circle cx="-0.35983495705504465" cy="-0.9633883476483185" r="0.012371134020618558" fill="rgb( 0, 0, 255 )"/>
    <circle cx="-0.5" cy="-0.9166666666666667" r="0.012371134020618558" fill="rgb( 0, 0, 255 )"/>
    <circle cx="-0.6328444451784314" cy="-0.8455873010630253" r="0.012371134020618558" fill="rgb( 0, 0, 255 )"/>
    <circle cx="-0.75" cy="-0.75" r="0.012371134020618558" fill="rgb( 0, 0, 255 )"/>
    <circle cx="-0.845587301063025" cy="-0.6328444451784316" r="0.012371134020618558" fill="rgb( 0, 0, 255 )"/>
    <circle cx="-0.9166666666666666" cy="-0.5000000000000001" r="0.012371134020618558" fill="rgb( 0, 0, 255 )"/>
    <circle cx="-0.9633883476483185" cy="-0.35983495705504476" r="0.012371134020618558" fill="rgb( 0, 0, 255 )"/>
    <circle cx="-0.9888354503153698" cy="-0.22248941508981745" r="0.012371134020618558" fill="rgb( 0, 0, 255 )"/>
    <circle cx="-0.9985802427620445" cy="-0.09895066295084376" r="0.012371134020618558" fill="rgb( 0, 0, 255 )"/>
    <circle cx="-1.0" cy="0.0" r="0.012371134020618558" fill="rgb( 0, 0, 255 )"/>
    <circle cx="-1.0" cy="0.0" r="0.012371134020618558" fill="rgb( 0, 0, 255 )"/>
    <circle cx="-0.9985802427620445" cy="0.09895066295084369" r="0.012371134020618558" fill="rgb( 0, 0, 255 )"/>
    <circle cx="-0.9888354503153699" cy="0.2224894150898172" r="0.012371134020618558" fill="rgb( 0, 0, 255 )"/>
    <circle cx="-0.9633883476483185" cy="0.35983495705504465" r="0.012371134020618558" fill="rgb( 0, 0, 255 )"/>
    <circle cx="-0.9166666666666667" cy="0.5" r="0.012371134020618558" fill="rgb( 0, 0, 255 )"/>
    <circle cx="-0.8455873010630253" cy="0.6328444451784314" r="0.012371134020618558" fill="rgb( 0, 0, 255 )"/>
    <circle cx="-0.75" cy="0.75" r="0.012371134020618558" fill="rgb( 0, 0, 255 )"/>
    <circle cx="-0.6328444451784316" cy="0.845587301063025" r="0.012371134020618558" fill="rgb( 0, 0, 255 )"/>
    <circle cx="-0.5000000000000001" cy="0.9166666666666666" r="0.012371134020618558" fill="rgb( 0, 0, 255 )"/>
    <circle cx="-0.35983495705504476" cy="0.9633883476483185" r="0.012371134020618558" fill="rgb( 0, 0, 255 )"/>
    <circle cx="-0.22248941508981745" cy="0.9888354503153698" r="0.012371134020618558" fill="rgb( 0, 0, 255 )"/>
    <circle cx="-0.09895066295084376" cy="0.9985802427620445" r="0.012371134020618558" fill="rgb( 0, 0, 255 )"/>
    <circle cx="0.0" cy="1.0" r="0.012371134020618558" fill="rgb( 0, 0, 255 )"/>
  </g>
</svg>
