<svg width="1000.0" height="555.5555555555555" xmlns="http://www.w3.org/2000/svg">
  <g transform="translate(237.22222222222223, 225.22222222222223) scale(210.22222222222223, -210.22222222222223)">
    <line x1="0.0" y1="1.0" x2="-1.0" y2="1.0" stroke="rgb( 255, 192, 192 )" stroke-width="0.01427061310782241"/>
    <line x1="2.0" y1="0.0" x2="1.0" y2="1.0" stroke="rgb( 255, 192, 192 )" stroke-width="0.01427061310782241"/>
    <line x1="0.0" y1="-1.0" x2="3.5" y2="-1.5" stroke="rgb( 255, 192, 192 )" stroke-width="0.01427061310782241"/>
    <line x1="-1.0" y1="0.0" x2="-1.0" y2="-1.0" stroke="rgb( 255, 192, 192 )" stroke-width="0.01427061310782241"/>
    <line x1="0.0" y1="1.0" x2="1.0" y2="1.0" stroke="rgb( 192, 192, 255 )" stroke-width="0.01427061310782241"/>
    <line x1="2.0" y1="0.0" x2="3.5" y2="-1.5" stroke="rgb( 192, 192, 255 )" stroke-width="0.01427061310782241"/>
    <line x1="0.0" y1="-1.0" x2="-1.0" y2="-1.0" stroke="rgb( 192, 192, 255 )" stroke-width="0.01427061310782241"/>
    <line x1="-1.0" y1="0.0" x2="-1.0" y2="1.0" stroke="rgb( 192, 192, 255 )" stroke-width="0.01427061310782241"/>
    <circle cx="0.0" cy="1.0" r="0.05708245243128964" fill="rgb( 255, 128, 255 )"/>
    <circle cx="2.0" cy="0.0" r="0.05708245243128964" fill="rgb( 255, 128, 255 )"/>
    <circle cx="0.0" cy="-1.0" r="0.05708245243128964" fill="rgb( 255, 128, 255 )"/>
    <circle cx="-1.0" cy="0.0" r="0.05708245243128964" fill="rgb( 255, 128, 255 )"/>
    <circle cx="0.0" cy="1.0" r="0.02854122621564482" fill="rgb( 0, 0, 255 )"/>
    <circle cx="0.10037042018879917" cy="0.9985802427620445" r="0.02854122621564482" fill="rgb( 0, 0, 255 )"/>
    <circle cx="0.23365396477444728" cy="0.9888354503153699" r="0.02854122621564482" fill="rgb( 0, 0, 255 )"/>
    <circle cx="0.3964466094067262" cy="0.9633883476483185" r="0.02854122621564482" fill="rgb( 0, 0, 255 )"/>
    <circle cx="0.5833333333333333" cy="0.9166666666666667" r="0.02854122621564482" fill="rgb( 0, 0, 255 )"/>
    <circle cx="0.7872571441154061" cy="0.8455873010630253" r="0.02854122621564482" fill="rgb( 0, 0, 255 )"/>
    <circle cx="1.0" cy="0.75" r="0.02854122621564482" fill="rgb( 0, 0, 255 )"/>
    <circle cx="1.2127428558845934" cy="0.6328444451784316" r="0.02854122621564482" fill="rgb( 0, 0, 255 )"/>
    <circle cx="1.4166666666666665" cy="0.5000000000000001" r="0.02854122621564482" fill="rgb( 0, 0, 255 )"/>
    <circle cx="1.6035533905932737" cy="0.35983495705504476" r="0.02854122621564482" fill="rgb( 0, 0, 255 )"/>
    <circle cx="1.7663460352255524" cy="0.22248941508981745" r="0.02854122621564482" fill="rgb( 0, 0, 255 )"/>
    <circle cx="1.8996295798112006" cy="0.09895066295084376" r="0.02854122621564482" fill="rgb( 0, 0, 255 )"/>
    <circle cx="2.0" cy="0.0" r="0.02854122621564482" fill="rgb( 0, 0, 255 )"/>
    <circle cx="2.0" cy="0.0" r="0.02854122621564482" fill="rgb( 0, 0, 255 )"/>
    <circle cx="2.1434568440934214" cy="-0.1477161158072878" r="0.02854122621564482" fill="rgb( 0, 0, 255 )"/>
    <circle cx="2.2946581987385204" cy="-0.32815184779241074" r="0.02854122621564482" fill="rgb( 0, 0, 255 )"/>
    <circle cx="2.4116116523516817" cy="-0.5214466094067263" r="0.02854122621564482" fill="rgb( 0, 0, 255 )"/>
    <circle cx="2.4583333333333335" cy="-0.7083333333333333" r="0.02854122621564482" fill="rgb( 0, 0, 255 )"/>
    <circle cx="2.4088222214882355" cy="-0.8720603182991598" r="0.02854122621564482" fill="rgb( 0, 0, 255 )"/>
    <circle cx="2.25" cy="-1.0" r="0.02854122621564482" fill="rgb( 0, 0, 255 )"/>
    <circle cx="1.9833365097190483" cy="-1.0848031741837534" r="0.02854122621564482" fill="rgb( 0, 0, 255 )"/>
    <circle cx="1.6250000000000002" cy="-1.125" r="0.02854122621564482" fill="rgb( 0, 0, 255 )"/>
    <circle cx="1.204504871165134" cy="-1.125" r="0.02854122621564482" fill="rgb( 0, 0, 255 )"/>
    <circle cx="0.7619661282874155" cy="-1.0944978830179637" r="0.02854122621564482" fill="rgb( 0, 0, 255 )"/>
    <circle cx="0.34419768447102017" cy="-1.0473456956184888" r="0.02854122621564482" fill="rgb( 0, 0, 255 )"/>
    <circle cx="0.0" cy="-1.0" r="0.02854122621564482" fill="rgb( 0, 0, 255 )"/>
    <circle cx="0.0" cy="-1.0" r="0.02854122621564482" fill="rgb( 0, 0, 255 )"/>
    <circle cx="-0.09895066295084369" cy="-0.9985802427620445" r="0.02854122621564482" fill="rgb( 0, 0, 255 )"/>
    <circle cx="-0.2224894150898172" cy="-0.9888354503153699" r="0.02854122621564482" fill="rgb( 0, 0, 255 )"/>
    <circle cx="-0.35983495705504465" cy="-0.9633883476483185" r="0.02854122621564482" fill="rgb( 0, 0, 255 )"/>
    <circle cx="-0.5" cy="-0.9166666666666667" r="0.02854122621564482" fill="rgb( 0, 0, 255 )"/>
    <circle cx="-0.6328444451784314" cy="-0.8455873010630253" r="0.02854122621564482" fill="rgb( 0, 0, 255 )"/>
    <circle cx="-0.75" cy="-0.75" r="0.02854122621564482" fill="rgb( 0, 0, 255 )"/>
    <circle cx="-0.845587301063025" cy="-0.6328444451784316" r="0.02854122621564482" fill="rgb( 0, 0, 255 )"/>
    <circle cx="-0.9166666666666666" cy="-0.5000000000000001" r="0.02854122621564482" fill="rgb( 0, 0, 255 )"/>
    <circle cx="-0.9633883476483185" cy="-0.35983495705504476" r="0.02854122621564482" fill="rgb( 0, 0, 255 )"/>
    <circle cx="-0.9888354503153698" cy="-0.22248941508981745" r="0.02854122621564482" fill="rgb( 0, 0, 255 )"/>
    <circle cx="-0.9985802427620445" cy="-0.09895066295084376" r="0.02854122621564482" fill="rgb( 0, 0, 255 )"/>
    <circle cx="-1.0" cy="0.0" r="0.02854122621564482" fill="rgb( 0, 0, 255 )"/>
    <circle cx="-1.0" cy="0.0" r="0.02854122621564482" fill="rgb( 0, 0, 255 )"/>
    <circle cx="-0.9985802427620445" cy="0.09895066295084369" r="0.02854122621564482" fill="rgb( 0, 0, 255 )"/>
    <circle cx="-0.9888354503153699" cy="0.2224894150898172" r="0.02854122621564482" fill="rgb( 0, 0, 255 )"/>
    <circle cx="-0.9633883476483185" cy="0.35983495705504465" r="0.02854122621564482" fill="rgb( 0, 0, 255 )"/>
    <circle cx="-0.9166666666666667" cy="0.5" r="0.02854122621564482" fill="rgb( 0, 0, 255 )"/>
    <circle cx="-0.8455873010630253" cy="0.6328444451784314" r="0.02854122621564482" fill="rgb( 0, 0, 255 )"/>
    <circle cx="-0.75" cy="0.75" r="0.02854122621564482" fill="rgb( 0, 0, 255 )"/>
    <circle cx="-0.6328444451784316" cy="0.845587301063025" r="0.02854122621564482" fill="rgb( 0, 0, 255 )"/>
    <circle cx="-0.5000000000000001" cy="0.9166666666666666" r="0.02854122621564482" fill="rgb( 0, 0, 255 )"/>
    <circle cx="-0.35983495705504476" cy="0.9633883476483185" r="0.02854122621564482" fill="rgb( 0, 0, 255 )"/>
    <circle cx="-0.22248941508981745" cy="0.9888354503153698" r="0.02854122621564482" fill="rgb( 0, 0, 255 )"/>
    <circle cx="-0.09895066295084376" cy="0.9985802427620445" r="0.02854122621564482" fill="rgb( 0, 0, 255 )"/>
    <circle cx="0.0" cy="1.0" r="0.02854122621564482" fill="rgb( 0, 0, 255 )"/>
  </g>
</svg>
