<?xml version="1.0" encoding="UTF-8" standalone="no"?>
<svg
   id="svg"
   version="1.1"
   width="2072.2739"
   height="2053.585"
   viewBox="0 0 2072.2738 2053.5851"
   sodipodi:docname="arc.svg"
   inkscape:version="1.4 (86a8ad7, 2024-10-11)"
   inkscape:export-filename="trine.png"
   inkscape:export-xdpi="96"
   inkscape:export-ydpi="96"
   xmlns:inkscape="http://www.inkscape.org/namespaces/inkscape"
   xmlns:sodipodi="http://sodipodi.sourceforge.net/DTD/sodipodi-0.dtd"
   xmlns="http://www.w3.org/2000/svg"
   xmlns:svg="http://www.w3.org/2000/svg">
  <defs
     id="defs1">
    <rect
       x="46.634869"
       y="345.09805"
       width="256.91574"
       height="84.366722"
       id="rect6" />
  </defs>
  <sodipodi:namedview
     id="namedview1"
     pagecolor="#ffffff"
     bordercolor="#000000"
     borderopacity="0.25"
     inkscape:showpageshadow="2"
     inkscape:pageopacity="0.0"
     inkscape:pagecheckerboard="0"
     inkscape:deskcolor="#d1d1d1"
     inkscape:zoom="0.29484375"
     inkscape:cx="361.20827"
     inkscape:cy="1921.3567"
     inkscape:window-width="3840"
     inkscape:window-height="2126"
     inkscape:window-x="-11"
     inkscape:window-y="-11"
     inkscape:window-maximized="1"
     inkscape:current-layer="svg" />
  <g
     id="g6"
     transform="matrix(4.5160786,0,0,4.5160786,-76.732486,100)">
    <path
       id="path0"
       d="m 286.19834,43.824661 0.104,10.25 2.149,0.737 c 52.437,17.984 89.805,65.611999 93.056,118.607999 l 0.108,1.758 9.473,0.104 9.472,0.105 v -1.474 c 0,-0.811 -0.265,-3.759 -0.589,-6.55 -5.312,-45.798 -30.581,-86.791999 -68.977,-111.903999 l -4.791,-3.133 h 23.645 23.645 l -0.589,-2.051 c -0.839,-2.927 -0.844,-11.503 -0.008,-14.453 l 0.637,-2.246 h -43.719 -43.72 l 0.104,10.249 m -166.106,-9.596 c 0,0.145 0.284,1.771 0.633,3.613 0.718,3.803 0.542,8.967 -0.429,12.531 -0.322,1.182 -0.588,2.279 -0.59,2.438 -0.003,0.16 10.533,0.335 23.414,0.391 l 23.418,0.101 -5.352,3.561 c -38.742,25.781 -65.895999,72.006999 -68.123999,115.969999 l -0.119,2.344 9.447999,0.104 9.447,0.105 0.213,-1.667 c 0.116,-0.917 0.403,-3.337 0.638,-5.378 5.749,-50.073 41.305,-94.168999 89.629,-111.154999 l 4.688,-1.647 0.103,-10.787 0.104,-10.786 h -43.561 c -23.958,0 -43.56,0.118 -43.56,0.262"
       stroke="none"
       fill="#7493a4"
       fill-rule="evenodd"
       style="fill:#4886ff;fill-opacity:1" />
    <circle
       style="fill:none;stroke:#ff3535;stroke-width:18.277;stroke-linecap:round;stroke-linejoin:round;stroke-dasharray:none;stroke-opacity:1"
       id="path3"
       cx="86.423874"
       cy="42.833572"
       r="25.92334" />
    <circle
       style="fill:none;stroke:#ff3535;stroke-width:18.277;stroke-linecap:round;stroke-linejoin:round;stroke-dasharray:none;stroke-opacity:1"
       id="circle5"
       cx="406.42386"
       cy="42.833572"
       r="25.92334" />
    <rect
       style="fill:none;stroke:#ff3535;stroke-width:19.3004;stroke-linecap:round;stroke-linejoin:round;stroke-dasharray:none;stroke-opacity:1"
       id="rect5"
       width="59.990734"
       height="62.676888"
       x="361.76282"
       y="184.42212" />
    <rect
       style="fill:none;stroke:#ff3535;stroke-width:19.3004;stroke-linecap:round;stroke-linejoin:round;stroke-dasharray:none;stroke-opacity:1"
       id="rect4"
       width="59.990734"
       height="62.676888"
       x="71.762833"
       y="184.42212" />
    <rect
       style="fill:none;stroke:#ff3535;stroke-width:19.3004;stroke-linecap:round;stroke-linejoin:round;stroke-dasharray:none;stroke-opacity:1"
       id="rect3"
       width="59.990734"
       height="62.676888"
       x="216.55672"
       y="9.6501999" />
  </g>
  <text
     xml:space="preserve"
     id="text5"
     style="font-weight:500;font-size:64px;font-family:Orbitron;-inkscape-font-specification:'Orbitron Medium';text-align:center;writing-mode:lr-tb;direction:ltr;white-space:pre;shape-inside:url(#rect6);display:inline;fill:#003bb4;fill-opacity:1;stroke:none;stroke-width:18.277;stroke-linecap:round;stroke-linejoin:round;stroke-dasharray:none;stroke-opacity:1"
     transform="matrix(12.307224,0,0,12.307224,-1122.7069,-2982.8136)"><tspan
       x="95.636719"
       y="401.09766"
       id="tspan2">ARC</tspan></text>
</svg>
