<svg width="1000" height="1187.5" xmlns="http://www.w3.org/2000/svg">
  <g transform="translate(75.625, 1230.3125) scale(121.25, -121.25)">
    <line x1="1" y1="2" x2="-0.5" y2="0.5" stroke="rgb( 255, 192, 192 )" stroke-width="0.024742268041237116"/>
    <line x1="3" y1="5" x2="1.5" y2="6.5" stroke="rgb( 255, 192, 192 )" stroke-width="0.024742268041237116"/>
    <line x1="6" y1="7" x2="4.5" y2="4" stroke="rgb( 255, 192, 192 )" stroke-width="0.024742268041237116"/>
    <line x1="1" y1="2" x2="2.5" y2="3.5" stroke="rgb( 192, 192, 255 )" stroke-width="0.024742268041237116"/>
    <line x1="3" y1="5" x2="4.5" y2="3.5" stroke="rgb( 192, 192, 255 )" stroke-width="0.024742268041237116"/>
    <line x1="6" y1="7" x2="7.5" y2="10" stroke="rgb( 192, 192, 255 )" stroke-width="0.024742268041237116"/>
    <circle cx="1" cy="2" r="0.09896907216494846" fill="rgb( 255, 128, 255 )"/>
    <circle cx="3" cy="5" r="0.09896907216494846" fill="rgb( 255, 128, 255 )"/>
    <circle cx="6" cy="7" r="0.09896907216494846" fill="rgb( 255, 128, 255 )"/>
    <circle cx="1" cy="2" r="0.04948453608247423" fill="rgb( 0, 0, 255 )"/>
    <circle cx="1.1335185434277328" cy="2.19740761913573" r="0.04948453608247423" fill="rgb( 0, 0, 255 )"/>
    <circle cx="1.2834936490538904" cy="2.5179491924311224" r="0.04948453608247423" fill="rgb( 0, 0, 255 )"/>
    <circle cx="1.448223304703363" cy="2.9241747852752233" r="0.04948453608247423" fill="rgb( 0, 0, 255 )"/>
    <circle cx="1.625" cy="3.375" r="0.04948453608247423" fill="rgb( 0, 0, 255 )"/>
    <circle cx="1.8102952387243698" cy="3.8294190517084035" r="0.04948453608247423" fill="rgb( 0, 0, 255 )"/>
    <circle cx="2" cy="4.25" r="0.04948453608247423" fill="rgb( 0, 0, 255 )"/>
    <circle cx="2.18970476127563" cy="4.605876187015966" r="0.04948453608247423" fill="rgb( 0, 0, 255 )"/>
    <circle cx="2.375" cy="4.875" r="0.04948453608247423" fill="rgb( 0, 0, 255 )"/>
    <circle cx="2.551776695296637" cy="5.045495128834866" r="0.04948453608247423" fill="rgb( 0, 0, 255 )"/>
    <circle cx="2.7165063509461094" cy="5.116025403784438" r="0.04948453608247423" fill="rgb( 0, 0, 255 )"/>
    <circle cx="2.866481456572267" cy="5.0951850980029345" r="0.04948453608247423" fill="rgb( 0, 0, 255 )"/>
    <circle cx="3" cy="5" r="0.04948453608247423" fill="rgb( 0, 0, 255 )"/>
    <circle cx="3" cy="5" r="0.04948453608247423" fill="rgb( 0, 0, 255 )"/>
    <circle cx="3.1505556302831987" cy="4.864351820715334" r="0.04948453608247423" fill="rgb( 0, 0, 255 )"/>
    <circle cx="3.350480947161671" cy="4.733253175473055" r="0.04948453608247423" fill="rgb( 0, 0, 255 )"/>
    <circle cx="3.5946699141100895" cy="4.64330582617584" r="0.04948453608247423" fill="rgb( 0, 0, 255 )"/>
    <circle cx="3.875" cy="4.625" r="0.04948453608247423" fill="rgb( 0, 0, 255 )"/>
    <circle cx="4.180885716173109" cy="4.699266667767647" r="0.04948453608247423" fill="rgb( 0, 0, 255 )"/>
    <circle cx="4.5" cy="4.875" r="0.04948453608247423" fill="rgb( 0, 0, 255 )"/>
    <circle cx="4.81911428382689" cy="5.147790474145798" r="0.04948453608247423" fill="rgb( 0, 0, 255 )"/>
    <circle cx="5.125" cy="5.5" r="0.04948453608247423" fill="rgb( 0, 0, 255 )"/>
    <circle cx="5.4053300858899105" cy="5.902189302659025" r="0.04948453608247423" fill="rgb( 0, 0, 255 )"/>
    <circle cx="5.649519052838329" cy="6.315784930203603" r="0.04948453608247423" fill="rgb( 0, 0, 255 )"/>
    <circle cx="5.849444369716801" cy="6.696759103576669" r="0.04948453608247423" fill="rgb( 0, 0, 255 )"/>
    <circle cx="6" cy="7" r="0.04948453608247423" fill="rgb( 0, 0, 255 )"/>
  </g>
</svg>