<svg width="1000" height="500" xmlns="http://www.w3.org/2000/svg">
  <g transform="translate(265, 250) scale(235, -235)">
    <line x1="0" y1="1" x2="-1" y2="1" stroke="rgb( 255, 192, 192 )" stroke-width="0.012765957446808512"/>
    <line x1="2" y1="0" x2="1" y2="1" stroke="rgb( 255, 192, 192 )" stroke-width="0.012765957446808512"/>
    <line x1="0" y1="-1" x2="3" y2="-1" stroke="rgb( 255, 192, 192 )" stroke-width="0.012765957446808512"/>
    <line x1="-1" y1="0" x2="-1" y2="-1" stroke="rgb( 255, 192, 192 )" stroke-width="0.012765957446808512"/>
    <line x1="0" y1="1" x2="1" y2="1" stroke="rgb( 192, 192, 255 )" stroke-width="0.012765957446808512"/>
    <line x1="2" y1="0" x2="3" y2="-1" stroke="rgb( 192, 192, 255 )" stroke-width="0.012765957446808512"/>
    <line x1="0" y1="-1" x2="-1" y2="-1" stroke="rgb( 192, 192, 255 )" stroke-width="0.012765957446808512"/>
    <line x1="-1" y1="0" x2="-1" y2="1" stroke="rgb( 192, 192, 255 )" stroke-width="0.012765957446808512"/>
    <circle cx="0" cy="1" r="0.05106382978723405" fill="rgb( 255, 128, 255 )"/>
    <circle cx="2" cy="0" r="0.05106382978723405" fill="rgb( 255, 128, 255 )"/>
    <circle cx="0" cy="-1" r="0.05106382978723405" fill="rgb( 255, 128, 255 )"/>
    <circle cx="-1" cy="0" r="0.05106382978723405" fill="rgb( 255, 128, 255 )"/>
    <circle cx="0" cy="1" r="0.025531914893617023" fill="rgb( 0, 0, 255 )"/>
    <circle cx="0.1390813308462414" cy="0.9914448613738104" r="0.025531914893617023" fill="rgb( 0, 0, 255 )"/>
    <circle cx="0.2928932188134524" cy="0.9659258262890683" r="0.025531914893617023" fill="rgb( 0, 0, 255 )"/>
    <circle cx="0.4588038998538031" cy="0.9238795325112867" r="0.025531914893617023" fill="rgb( 0, 0, 255 )"/>
    <circle cx="0.6339745962155613" cy="0.8660254037844387" r="0.025531914893617023" fill="rgb( 0, 0, 255 )"/>
    <circle cx="0.8154080887174855" cy="0.7933533402912352" r="0.025531914893617023" fill="rgb( 0, 0, 255 )"/>
    <circle cx="0.9999999999999999" cy="0.7071067811865476" r="0.025531914893617023" fill="rgb( 0, 0, 255 )"/>
    <circle cx="1.184591911282514" cy="0.6087614290087208" r="0.025531914893617023" fill="rgb( 0, 0, 255 )"/>
    <circle cx="1.3660254037844386" cy="0.5" r="0.025531914893617023" fill="rgb( 0, 0, 255 )"/>
    <circle cx="1.541196100146197" cy="0.3826834323650898" r="0.025531914893617023" fill="rgb( 0, 0, 255 )"/>
    <circle cx="1.7071067811865475" cy="0.25881904510252085" r="0.025531914893617023" fill="rgb( 0, 0, 255 )"/>
    <circle cx="1.860918669153759" cy="0.13052619222005163" r="0.025531914893617023" fill="rgb( 0, 0, 255 )"/>
    <circle cx="2" cy="0" r="0.025531914893617023" fill="rgb( 0, 0, 255 )"/>
    <circle cx="2" cy="-6.123233995736766E-17" r="0.025531914893617023" fill="rgb( 0, 0, 255 )"/>
    <circle cx="2.1048607763414826" cy="-0.1305261922200517" r="0.025531914893617023" fill="rgb( 0, 0, 255 )"/>
    <circle cx="2.156596523969726" cy="-0.25881904510252074" r="0.025531914893617023" fill="rgb( 0, 0, 255 )"/>
    <circle cx="2.1543220298989496" cy="-0.38268343236508984" r="0.025531914893617023" fill="rgb( 0, 0, 255 )"/>
    <circle cx="2.098076211353316" cy="-0.4999999999999999" r="0.025531914893617023" fill="rgb( 0, 0, 255 )"/>
    <circle cx="1.9888214498824264" cy="-0.6087614290087207" r="0.025531914893617023" fill="rgb( 0, 0, 255 )"/>
    <circle cx="1.8284271247461903" cy="-0.7071067811865476" r="0.025531914893617023" fill="rgb( 0, 0, 255 )"/>
    <circle cx="1.6196376273173971" cy="-0.793353340291235" r="0.025531914893617023" fill="rgb( 0, 0, 255 )"/>
    <circle cx="1.3660254037844386" cy="-0.8660254037844386" r="0.025531914893617023" fill="rgb( 0, 0, 255 )"/>
    <circle cx="1.071929829606556" cy="-0.9238795325112867" r="0.025531914893617023" fill="rgb( 0, 0, 255 )"/>
    <circle cx="0.7423829615966309" cy="-0.9659258262890683" r="0.025531914893617023" fill="rgb( 0, 0, 255 )"/>
    <circle cx="0.38302343803396527" cy="-0.9914448613738104" r="0.025531914893617023" fill="rgb( 0, 0, 255 )"/>
    <circle cx="0" cy="-1" r="0.025531914893617023" fill="rgb( 0, 0, 255 )"/>
    <circle cx="-6.123233995736766E-17" cy="-1" r="0.025531914893617023" fill="rgb( 0, 0, 255 )"/>
    <circle cx="-0.1305261922200517" cy="-0.9914448613738104" r="0.025531914893617023" fill="rgb( 0, 0, 255 )"/>
    <circle cx="-0.25881904510252074" cy="-0.9659258262890683" r="0.025531914893617023" fill="rgb( 0, 0, 255 )"/>
    <circle cx="-0.38268343236508984" cy="-0.9238795325112867" r="0.025531914893617023" fill="rgb( 0, 0, 255 )"/>
    <circle cx="-0.4999999999999999" cy="-0.8660254037844387" r="0.025531914893617023" fill="rgb( 0, 0, 255 )"/>
    <circle cx="-0.6087614290087207" cy="-0.7933533402912352" r="0.025531914893617023" fill="rgb( 0, 0, 255 )"/>
    <circle cx="-0.7071067811865476" cy="-0.7071067811865476" r="0.025531914893617023" fill="rgb( 0, 0, 255 )"/>
    <circle cx="-0.793353340291235" cy="-0.6087614290087208" r="0.025531914893617023" fill="rgb( 0, 0, 255 )"/>
    <circle cx="-0.8660254037844386" cy="-0.5" r="0.025531914893617023" fill="rgb( 0, 0, 255 )"/>
    <circle cx="-0.9238795325112867" cy="-0.3826834323650898" r="0.025531914893617023" fill="rgb( 0, 0, 255 )"/>
    <circle cx="-0.9659258262890683" cy="-0.25881904510252085" r="0.025531914893617023" fill="rgb( 0, 0, 255 )"/>
    <circle cx="-0.9914448613738104" cy="-0.13052619222005163" r="0.025531914893617023" fill="rgb( 0, 0, 255 )"/>
    <circle cx="-1" cy="0" r="0.025531914893617023" fill="rgb( 0, 0, 255 )"/>
    <circle cx="-1" cy="6.123233995736766E-17" r="0.025531914893617023" fill="rgb( 0, 0, 255 )"/>
    <circle cx="-0.9914448613738104" cy="0.1305261922200517" r="0.025531914893617023" fill="rgb( 0, 0, 255 )"/>
    <circle cx="-0.9659258262890683" cy="0.25881904510252074" r="0.025531914893617023" fill="rgb( 0, 0, 255 )"/>
    <circle cx="-0.9238795325112867" cy="0.38268343236508984" r="0.025531914893617023" fill="rgb( 0, 0, 255 )"/>
    <circle cx="-0.8660254037844387" cy="0.4999999999999999" r="0.025531914893617023" fill="rgb( 0, 0, 255 )"/>
    <circle cx="-0.7933533402912352" cy="0.6087614290087207" r="0.025531914893617023" fill="rgb( 0, 0, 255 )"/>
    <circle cx="-0.7071067811865476" cy="0.7071067811865476" r="0.025531914893617023" fill="rgb( 0, 0, 255 )"/>
    <circle cx="-0.6087614290087208" cy="0.793353340291235" r="0.025531914893617023" fill="rgb( 0, 0, 255 )"/>
    <circle cx="-0.5" cy="0.8660254037844386" r="0.025531914893617023" fill="rgb( 0, 0, 255 )"/>
    <circle cx="-0.3826834323650898" cy="0.9238795325112867" r="0.025531914893617023" fill="rgb( 0, 0, 255 )"/>
    <circle cx="-0.25881904510252085" cy="0.9659258262890683" r="0.025531914893617023" fill="rgb( 0, 0, 255 )"/>
    <circle cx="-0.13052619222005163" cy="0.9914448613738104" r="0.025531914893617023" fill="rgb( 0, 0, 255 )"/>
    <circle cx="0" cy="1" r="0.025531914893617023" fill="rgb( 0, 0, 255 )"/>
  </g>
</svg>