<svg width="1000" height="666.6666666666666" xmlns="http://www.w3.org/2000/svg">
  <g transform="translate(234.72222222222223, 333.3333333333333) scale(212.2222222222222, -212.2222222222222)">
    <line x1="0" y1="1" x2="-1" y2="1" stroke="rgb( 255, 192, 192 )" stroke-width="0.014136125654450264"/>
    <line x1="2" y1="0" x2="0.5" y2="1.5" stroke="rgb( 255, 192, 192 )" stroke-width="0.014136125654450264"/>
    <line x1="0" y1="-1" x2="1" y2="-1" stroke="rgb( 255, 192, 192 )" stroke-width="0.014136125654450264"/>
    <line x1="-1" y1="0" x2="-1" y2="-1" stroke="rgb( 255, 192, 192 )" stroke-width="0.014136125654450264"/>
    <line x1="0" y1="1" x2="1" y2="1" stroke="rgb( 192, 192, 255 )" stroke-width="0.014136125654450264"/>
    <line x1="2" y1="0" x2="3.5" y2="-1.5" stroke="rgb( 192, 192, 255 )" stroke-width="0.014136125654450264"/>
    <line x1="0" y1="-1" x2="-1" y2="-1" stroke="rgb( 192, 192, 255 )" stroke-width="0.014136125654450264"/>
    <line x1="-1" y1="0" x2="-1" y2="1" stroke="rgb( 192, 192, 255 )" stroke-width="0.014136125654450264"/>
    <circle cx="0" cy="1" r="0.05654450261780106" fill="rgb( 255, 128, 255 )"/>
    <circle cx="2" cy="0" r="0.05654450261780106" fill="rgb( 255, 128, 255 )"/>
    <circle cx="0" cy="-1" r="0.05654450261780106" fill="rgb( 255, 128, 255 )"/>
    <circle cx="-1" cy="0" r="0.05654450261780106" fill="rgb( 255, 128, 255 )"/>
    <circle cx="0" cy="1" r="0.02827225130890053" fill="rgb( 0, 0, 255 )"/>
    <circle cx="0.09256175538004399" cy="1.0063889075707997" r="0.02827225130890053" fill="rgb( 0, 0, 255 )"/>
    <circle cx="0.20574259056287203" cy="1.016746824526945" r="0.02827225130890053" fill="rgb( 0, 0, 255 )"/>
    <circle cx="0.3415291308792039" cy="1.0183058261758409" r="0.02827225130890053" fill="rgb( 0, 0, 255 )"/>
    <circle cx="0.5" cy="1" r="0.02827225130890053" fill="rgb( 0, 0, 255 )"/>
    <circle cx="0.6791682548595238" cy="0.9536761903189076" r="0.02827225130890053" fill="rgb( 0, 0, 255 )"/>
    <circle cx="0.875" cy="0.875" r="0.02827225130890053" fill="rgb( 0, 0, 255 )"/>
    <circle cx="1.0816158720197475" cy="0.7639714290432775" r="0.02827225130890053" fill="rgb( 0, 0, 255 )"/>
    <circle cx="1.2916666666666665" cy="0.625" r="0.02827225130890053" fill="rgb( 0, 0, 255 )"/>
    <circle cx="1.4968592167691144" cy="0.4665291308792039" r="0.02827225130890053" fill="rgb( 0, 0, 255 )"/>
    <circle cx="1.6885949767345343" cy="0.3002404735808357" r="0.02827225130890053" fill="rgb( 0, 0, 255 )"/>
    <circle cx="1.858672791763512" cy="0.13990745099853263" r="0.02827225130890053" fill="rgb( 0, 0, 255 )"/>
    <circle cx="2" cy="0" r="0.02827225130890053" fill="rgb( 0, 0, 255 )"/>
    <circle cx="2" cy="0" r="0.02827225130890053" fill="rgb( 0, 0, 255 )"/>
    <circle cx="2.104413520049645" cy="-0.1399074509985326" r="0.02827225130890053" fill="rgb( 0, 0, 255 )"/>
    <circle cx="2.155101327680644" cy="-0.3002404735808355" r="0.02827225130890053" fill="rgb( 0, 0, 255 )"/>
    <circle cx="2.13702425971407" cy="-0.4665291308792039" r="0.02827225130890053" fill="rgb( 0, 0, 255 )"/>
    <circle cx="2.041666666666667" cy="-0.625" r="0.02827225130890053" fill="rgb( 0, 0, 255 )"/>
    <circle cx="1.8683777752088235" cy="-0.7639714290432773" r="0.02827225130890053" fill="rgb( 0, 0, 255 )"/>
    <circle cx="1.6250000000000002" cy="-0.875" r="0.02827225130890053" fill="rgb( 0, 0, 255 )"/>
    <circle cx="1.327701590394819" cy="-0.9536761903189075" r="0.02827225130890053" fill="rgb( 0, 0, 255 )"/>
    <circle cx="1.0000000000000004" cy="-1" r="0.02827225130890053" fill="rgb( 0, 0, 255 )"/>
    <circle cx="0.6710340020443382" cy="-1.0183058261758409" r="0.02827225130890053" fill="rgb( 0, 0, 255 )"/>
    <circle cx="0.3732108358323245" cy="-1.0167468245269453" r="0.02827225130890053" fill="rgb( 0, 0, 255 )"/>
    <circle cx="0.13941374423257535" cy="-1.0063889075707997" r="0.02827225130890053" fill="rgb( 0, 0, 255 )"/>
    <circle cx="0" cy="-1" r="0.02827225130890053" fill="rgb( 0, 0, 255 )"/>
    <circle cx="0" cy="-1" r="0.02827225130890053" fill="rgb( 0, 0, 255 )"/>
    <circle cx="-0.09895066295084369" cy="-0.9985802427620445" r="0.02827225130890053" fill="rgb( 0, 0, 255 )"/>
    <circle cx="-0.2224894150898172" cy="-0.9888354503153699" r="0.02827225130890053" fill="rgb( 0, 0, 255 )"/>
    <circle cx="-0.35983495705504465" cy="-0.9633883476483185" r="0.02827225130890053" fill="rgb( 0, 0, 255 )"/>
    <circle cx="-0.5" cy="-0.9166666666666667" r="0.02827225130890053" fill="rgb( 0, 0, 255 )"/>
    <circle cx="-0.6328444451784314" cy="-0.8455873010630253" r="0.02827225130890053" fill="rgb( 0, 0, 255 )"/>
    <circle cx="-0.75" cy="-0.75" r="0.02827225130890053" fill="rgb( 0, 0, 255 )"/>
    <circle cx="-0.845587301063025" cy="-0.6328444451784316" r="0.02827225130890053" fill="rgb( 0, 0, 255 )"/>
    <circle cx="-0.9166666666666666" cy="-0.5000000000000001" r="0.02827225130890053" fill="rgb( 0, 0, 255 )"/>
    <circle cx="-0.9633883476483185" cy="-0.35983495705504476" r="0.02827225130890053" fill="rgb( 0, 0, 255 )"/>
    <circle cx="-0.9888354503153698" cy="-0.22248941508981745" r="0.02827225130890053" fill="rgb( 0, 0, 255 )"/>
    <circle cx="-0.9985802427620445" cy="-0.09895066295084376" r="0.02827225130890053" fill="rgb( 0, 0, 255 )"/>
    <circle cx="-1" cy="0" r="0.02827225130890053" fill="rgb( 0, 0, 255 )"/>
    <circle cx="-1" cy="0" r="0.02827225130890053" fill="rgb( 0, 0, 255 )"/>
    <circle cx="-0.9985802427620445" cy="0.09895066295084369" r="0.02827225130890053" fill="rgb( 0, 0, 255 )"/>
    <circle cx="-0.9888354503153699" cy="0.2224894150898172" r="0.02827225130890053" fill="rgb( 0, 0, 255 )"/>
    <circle cx="-0.9633883476483185" cy="0.35983495705504465" r="0.02827225130890053" fill="rgb( 0, 0, 255 )"/>
    <circle cx="-0.9166666666666667" cy="0.5" r="0.02827225130890053" fill="rgb( 0, 0, 255 )"/>
    <circle cx="-0.8455873010630253" cy="0.6328444451784314" r="0.02827225130890053" fill="rgb( 0, 0, 255 )"/>
    <circle cx="-0.75" cy="0.75" r="0.02827225130890053" fill="rgb( 0, 0, 255 )"/>
    <circle cx="-0.6328444451784316" cy="0.845587301063025" r="0.02827225130890053" fill="rgb( 0, 0, 255 )"/>
    <circle cx="-0.5000000000000001" cy="0.9166666666666666" r="0.02827225130890053" fill="rgb( 0, 0, 255 )"/>
    <circle cx="-0.35983495705504476" cy="0.9633883476483185" r="0.02827225130890053" fill="rgb( 0, 0, 255 )"/>
    <circle cx="-0.22248941508981745" cy="0.9888354503153698" r="0.02827225130890053" fill="rgb( 0, 0, 255 )"/>
    <circle cx="-0.09895066295084376" cy="0.9985802427620445" r="0.02827225130890053" fill="rgb( 0, 0, 255 )"/>
    <circle cx="0" cy="1" r="0.02827225130890053" fill="rgb( 0, 0, 255 )"/>
  </g>
</svg>