<svg width="1000" height="500" xmlns="http://www.w3.org/2000/svg">
  <g transform="translate(265, 250) scale(235, -235)">
    <line x1="0" y1="1" x2="-1" y2="1" stroke="rgb( 255, 192, 192 )" stroke-width="0.012765957446808512"/>
    <line x1="2" y1="1" x2="1" y2="1" stroke="rgb( 255, 192, 192 )" stroke-width="0.012765957446808512"/>
    <line x1="3" y1="0" x2="3" y2="1" stroke="rgb( 255, 192, 192 )" stroke-width="0.012765957446808512"/>
    <line x1="2" y1="-1" x2="3" y2="-1" stroke="rgb( 255, 192, 192 )" stroke-width="0.012765957446808512"/>
    <line x1="0" y1="-1" x2="1" y2="-1" stroke="rgb( 255, 192, 192 )" stroke-width="0.012765957446808512"/>
    <line x1="-1" y1="0" x2="-1" y2="-1" stroke="rgb( 255, 192, 192 )" stroke-width="0.012765957446808512"/>
    <line x1="0" y1="1" x2="1" y2="1" stroke="rgb( 192, 192, 255 )" stroke-width="0.012765957446808512"/>
    <line x1="2" y1="1" x2="3" y2="1" stroke="rgb( 192, 192, 255 )" stroke-width="0.012765957446808512"/>
    <line x1="3" y1="0" x2="3" y2="-1" stroke="rgb( 192, 192, 255 )" stroke-width="0.012765957446808512"/>
    <line x1="2" y1="-1" x2="1" y2="-1" stroke="rgb( 192, 192, 255 )" stroke-width="0.012765957446808512"/>
    <line x1="0" y1="-1" x2="-1" y2="-1" stroke="rgb( 192, 192, 255 )" stroke-width="0.012765957446808512"/>
    <line x1="-1" y1="0" x2="-1" y2="1" stroke="rgb( 192, 192, 255 )" stroke-width="0.012765957446808512"/>
    <circle cx="0" cy="1" r="0.05106382978723405" fill="rgb( 255, 128, 255 )"/>
    <circle cx="2" cy="1" r="0.05106382978723405" fill="rgb( 255, 128, 255 )"/>
    <circle cx="3" cy="0" r="0.05106382978723405" fill="rgb( 255, 128, 255 )"/>
    <circle cx="2" cy="-1" r="0.05106382978723405" fill="rgb( 255, 128, 255 )"/>
    <circle cx="0" cy="-1" r="0.05106382978723405" fill="rgb( 255, 128, 255 )"/>
    <circle cx="-1" cy="0" r="0.05106382978723405" fill="rgb( 255, 128, 255 )"/>
    <circle cx="0" cy="1" r="0.025531914893617023" fill="rgb( 0, 0, 255 )"/>
    <circle cx="0.1390813308462414" cy="1" r="0.025531914893617023" fill="rgb( 0, 0, 255 )"/>
    <circle cx="0.2928932188134524" cy="1" r="0.025531914893617023" fill="rgb( 0, 0, 255 )"/>
    <circle cx="0.4588038998538031" cy="1" r="0.025531914893617023" fill="rgb( 0, 0, 255 )"/>
    <circle cx="0.6339745962155613" cy="1" r="0.025531914893617023" fill="rgb( 0, 0, 255 )"/>
    <circle cx="0.8154080887174855" cy="1" r="0.025531914893617023" fill="rgb( 0, 0, 255 )"/>
    <circle cx="0.9999999999999999" cy="1" r="0.025531914893617023" fill="rgb( 0, 0, 255 )"/>
    <circle cx="1.184591911282514" cy="1" r="0.025531914893617023" fill="rgb( 0, 0, 255 )"/>
    <circle cx="1.3660254037844386" cy="1" r="0.025531914893617023" fill="rgb( 0, 0, 255 )"/>
    <circle cx="1.541196100146197" cy="1" r="0.025531914893617023" fill="rgb( 0, 0, 255 )"/>
    <circle cx="1.7071067811865475" cy="1" r="0.025531914893617023" fill="rgb( 0, 0, 255 )"/>
    <circle cx="1.860918669153759" cy="1" r="0.025531914893617023" fill="rgb( 0, 0, 255 )"/>
    <circle cx="2" cy="1" r="0.025531914893617023" fill="rgb( 0, 0, 255 )"/>
    <circle cx="2" cy="1" r="0.025531914893617023" fill="rgb( 0, 0, 255 )"/>
    <circle cx="2.1305261922200516" cy="0.9914448613738104" r="0.025531914893617023" fill="rgb( 0, 0, 255 )"/>
    <circle cx="2.2588190451025207" cy="0.9659258262890683" r="0.025531914893617023" fill="rgb( 0, 0, 255 )"/>
    <circle cx="2.3826834323650896" cy="0.9238795325112867" r="0.025531914893617023" fill="rgb( 0, 0, 255 )"/>
    <circle cx="2.5" cy="0.8660254037844387" r="0.025531914893617023" fill="rgb( 0, 0, 255 )"/>
    <circle cx="2.6087614290087204" cy="0.7933533402912352" r="0.025531914893617023" fill="rgb( 0, 0, 255 )"/>
    <circle cx="2.7071067811865475" cy="0.7071067811865476" r="0.025531914893617023" fill="rgb( 0, 0, 255 )"/>
    <circle cx="2.793353340291235" cy="0.6087614290087208" r="0.025531914893617023" fill="rgb( 0, 0, 255 )"/>
    <circle cx="2.8660254037844384" cy="0.5" r="0.025531914893617023" fill="rgb( 0, 0, 255 )"/>
    <circle cx="2.923879532511287" cy="0.3826834323650898" r="0.025531914893617023" fill="rgb( 0, 0, 255 )"/>
    <circle cx="2.965925826289068" cy="0.25881904510252085" r="0.025531914893617023" fill="rgb( 0, 0, 255 )"/>
    <circle cx="2.9914448613738105" cy="0.13052619222005163" r="0.025531914893617023" fill="rgb( 0, 0, 255 )"/>
    <circle cx="3" cy="0" r="0.025531914893617023" fill="rgb( 0, 0, 255 )"/>
    <circle cx="3" cy="-0.00000000000000006123233995736766" r="0.025531914893617023" fill="rgb( 0, 0, 255 )"/>
    <circle cx="2.9914448613738105" cy="-0.1305261922200517" r="0.025531914893617023" fill="rgb( 0, 0, 255 )"/>
    <circle cx="2.965925826289068" cy="-0.25881904510252074" r="0.025531914893617023" fill="rgb( 0, 0, 255 )"/>
    <circle cx="2.923879532511287" cy="-0.38268343236508984" r="0.025531914893617023" fill="rgb( 0, 0, 255 )"/>
    <circle cx="2.866025403784439" cy="-0.4999999999999999" r="0.025531914893617023" fill="rgb( 0, 0, 255 )"/>
    <circle cx="2.793353340291235" cy="-0.6087614290087207" r="0.025531914893617023" fill="rgb( 0, 0, 255 )"/>
    <circle cx="2.7071067811865475" cy="-0.7071067811865476" r="0.025531914893617023" fill="rgb( 0, 0, 255 )"/>
    <circle cx="2.608761429008721" cy="-0.793353340291235" r="0.025531914893617023" fill="rgb( 0, 0, 255 )"/>
    <circle cx="2.5" cy="-0.8660254037844386" r="0.025531914893617023" fill="rgb( 0, 0, 255 )"/>
    <circle cx="2.3826834323650896" cy="-0.9238795325112867" r="0.025531914893617023" fill="rgb( 0, 0, 255 )"/>
    <circle cx="2.2588190451025207" cy="-0.9659258262890683" r="0.025531914893617023" fill="rgb( 0, 0, 255 )"/>
    <circle cx="2.1305261922200516" cy="-0.9914448613738104" r="0.025531914893617023" fill="rgb( 0, 0, 255 )"/>
    <circle cx="2" cy="-1" r="0.025531914893617023" fill="rgb( 0, 0, 255 )"/>
    <circle cx="2" cy="-1" r="0.025531914893617023" fill="rgb( 0, 0, 255 )"/>
    <circle cx="1.8609186691537587" cy="-1" r="0.025531914893617023" fill="rgb( 0, 0, 255 )"/>
    <circle cx="1.7071067811865475" cy="-1" r="0.025531914893617023" fill="rgb( 0, 0, 255 )"/>
    <circle cx="1.541196100146197" cy="-1" r="0.025531914893617023" fill="rgb( 0, 0, 255 )"/>
    <circle cx="1.3660254037844388" cy="-1" r="0.025531914893617023" fill="rgb( 0, 0, 255 )"/>
    <circle cx="1.1845919112825145" cy="-1" r="0.025531914893617023" fill="rgb( 0, 0, 255 )"/>
    <circle cx="1" cy="-1" r="0.025531914893617023" fill="rgb( 0, 0, 255 )"/>
    <circle cx="0.8154080887174857" cy="-1" r="0.025531914893617023" fill="rgb( 0, 0, 255 )"/>
    <circle cx="0.6339745962155614" cy="-1" r="0.025531914893617023" fill="rgb( 0, 0, 255 )"/>
    <circle cx="0.45880389985380304" cy="-1" r="0.025531914893617023" fill="rgb( 0, 0, 255 )"/>
    <circle cx="0.29289321881345254" cy="-1" r="0.025531914893617023" fill="rgb( 0, 0, 255 )"/>
    <circle cx="0.13908133084624125" cy="-1" r="0.025531914893617023" fill="rgb( 0, 0, 255 )"/>
    <circle cx="0" cy="-1" r="0.025531914893617023" fill="rgb( 0, 0, 255 )"/>
    <circle cx="-0.00000000000000006123233995736766" cy="-1" r="0.025531914893617023" fill="rgb( 0, 0, 255 )"/>
    <circle cx="-0.1305261922200517" cy="-0.9914448613738104" r="0.025531914893617023" fill="rgb( 0, 0, 255 )"/>
    <circle cx="-0.25881904510252074" cy="-0.9659258262890683" r="0.025531914893617023" fill="rgb( 0, 0, 255 )"/>
    <circle cx="-0.38268343236508984" cy="-0.9238795325112867" r="0.025531914893617023" fill="rgb( 0, 0, 255 )"/>
    <circle cx="-0.4999999999999999" cy="-0.8660254037844387" r="0.025531914893617023" fill="rgb( 0, 0, 255 )"/>
    <circle cx="-0.6087614290087207" cy="-0.7933533402912352" r="0.025531914893617023" fill="rgb( 0, 0, 255 )"/>
    <circle cx="-0.7071067811865476" cy="-0.7071067811865476" r="0.025531914893617023" fill="rgb( 0, 0, 255 )"/>
    <circle cx="-0.793353340291235" cy="-0.6087614290087208" r="0.025531914893617023" fill="rgb( 0, 0, 255 )"/>
    <circle cx="-0.8660254037844386" cy="-0.5" r="0.025531914893617023" fill="rgb( 0, 0, 255 )"/>
    <circle cx="-0.9238795325112867" cy="-0.3826834323650898" r="0.025531914893617023" fill="rgb( 0, 0, 255 )"/>
    <circle cx="-0.9659258262890683" cy="-0.25881904510252085" r="0.025531914893617023" fill="rgb( 0, 0, 255 )"/>
    <circle cx="-0.9914448613738104" cy="-0.13052619222005163" r="0.025531914893617023" fill="rgb( 0, 0, 255 )"/>
    <circle cx="-1" cy="0" r="0.025531914893617023" fill="rgb( 0, 0, 255 )"/>
    <circle cx="-1" cy="0.00000000000000006123233995736766" r="0.025531914893617023" fill="rgb( 0, 0, 255 )"/>
    <circle cx="-0.9914448613738104" cy="0.1305261922200517" r="0.025531914893617023" fill="rgb( 0, 0, 255 )"/>
    <circle cx="-0.9659258262890683" cy="0.25881904510252074" r="0.025531914893617023" fill="rgb( 0, 0, 255 )"/>
    <circle cx="-0.9238795325112867" cy="0.38268343236508984" r="0.025531914893617023" fill="rgb( 0, 0, 255 )"/>
    <circle cx="-0.8660254037844387" cy="0.4999999999999999" r="0.025531914893617023" fill="rgb( 0, 0, 255 )"/>
    <circle cx="-0.7933533402912352" cy="0.6087614290087207" r="0.025531914893617023" fill="rgb( 0, 0, 255 )"/>
    <circle cx="-0.7071067811865476" cy="0.7071067811865476" r="0.025531914893617023" fill="rgb( 0, 0, 255 )"/>
    <circle cx="-0.6087614290087208" cy="0.793353340291235" r="0.025531914893617023" fill="rgb( 0, 0, 255 )"/>
    <circle cx="-0.5" cy="0.8660254037844386" r="0.025531914893617023" fill="rgb( 0, 0, 255 )"/>
    <circle cx="-0.3826834323650898" cy="0.9238795325112867" r="0.025531914893617023" fill="rgb( 0, 0, 255 )"/>
    <circle cx="-0.25881904510252085" cy="0.9659258262890683" r="0.025531914893617023" fill="rgb( 0, 0, 255 )"/>
    <circle cx="-0.13052619222005163" cy="0.9914448613738104" r="0.025531914893617023" fill="rgb( 0, 0, 255 )"/>
    <circle cx="0" cy="1" r="0.025531914893617023" fill="rgb( 0, 0, 255 )"/>
  </g>
</svg>