<svg width="1000" height="666.6666666666666" xmlns="http://www.w3.org/2000/svg">
  <g transform="translate(340.83333333333337, 333.3333333333333) scale(318.3333333333333, -318.3333333333333)">
    <line x1="0" y1="1" x2="-1" y2="1" stroke="rgb( 255, 192, 192 )" stroke-width="0.009424083769633508"/>
    <line x1="2" y1="0" x2="2" y2="1" stroke="rgb( 255, 192, 192 )" stroke-width="0.009424083769633508"/>
    <line x1="0" y1="-1" x2="2" y2="-1" stroke="rgb( 255, 192, 192 )" stroke-width="0.009424083769633508"/>
    <line x1="-1" y1="0" x2="-1" y2="-1" stroke="rgb( 255, 192, 192 )" stroke-width="0.009424083769633508"/>
    <line x1="0" y1="1" x2="2" y2="1" stroke="rgb( 192, 192, 255 )" stroke-width="0.009424083769633508"/>
    <line x1="2" y1="0" x2="2" y2="-1" stroke="rgb( 192, 192, 255 )" stroke-width="0.009424083769633508"/>
    <line x1="0" y1="-1" x2="-1" y2="-1" stroke="rgb( 192, 192, 255 )" stroke-width="0.009424083769633508"/>
    <line x1="-1" y1="0" x2="-1" y2="1" stroke="rgb( 192, 192, 255 )" stroke-width="0.009424083769633508"/>
    <circle cx="0" cy="1" r="0.03769633507853403" fill="rgb( 255, 128, 255 )"/>
    <circle cx="2" cy="0" r="0.03769633507853403" fill="rgb( 255, 128, 255 )"/>
    <circle cx="0" cy="-1" r="0.03769633507853403" fill="rgb( 255, 128, 255 )"/>
    <circle cx="-1" cy="0" r="0.03769633507853403" fill="rgb( 255, 128, 255 )"/>
    <circle cx="0.00000000000000012246467991473532" cy="1" r="0.018848167539267015" fill="rgb( 0, 0, 255 )"/>
    <circle cx="0.2610523844401034" cy="0.9914448613738104" r="0.018848167539267015" fill="rgb( 0, 0, 255 )"/>
    <circle cx="0.5176380902050415" cy="0.9659258262890683" r="0.018848167539267015" fill="rgb( 0, 0, 255 )"/>
    <circle cx="0.7653668647301797" cy="0.9238795325112867" r="0.018848167539267015" fill="rgb( 0, 0, 255 )"/>
    <circle cx="0.9999999999999998" cy="0.8660254037844387" r="0.018848167539267015" fill="rgb( 0, 0, 255 )"/>
    <circle cx="1.2175228580174413" cy="0.7933533402912352" r="0.018848167539267015" fill="rgb( 0, 0, 255 )"/>
    <circle cx="1.4142135623730951" cy="0.7071067811865476" r="0.018848167539267015" fill="rgb( 0, 0, 255 )"/>
    <circle cx="1.58670668058247" cy="0.6087614290087208" r="0.018848167539267015" fill="rgb( 0, 0, 255 )"/>
    <circle cx="1.7320508075688772" cy="0.5" r="0.018848167539267015" fill="rgb( 0, 0, 255 )"/>
    <circle cx="1.8477590650225735" cy="0.3826834323650898" r="0.018848167539267015" fill="rgb( 0, 0, 255 )"/>
    <circle cx="1.9318516525781366" cy="0.25881904510252085" r="0.018848167539267015" fill="rgb( 0, 0, 255 )"/>
    <circle cx="1.9828897227476208" cy="0.13052619222005163" r="0.018848167539267015" fill="rgb( 0, 0, 255 )"/>
    <circle cx="2" cy="0" r="0.018848167539267015" fill="rgb( 0, 0, 255 )"/>
    <circle cx="2" cy="-0.00000000000000006123233995736766" r="0.018848167539267015" fill="rgb( 0, 0, 255 )"/>
    <circle cx="1.9828897227476208" cy="-0.1305261922200517" r="0.018848167539267015" fill="rgb( 0, 0, 255 )"/>
    <circle cx="1.9318516525781366" cy="-0.25881904510252074" r="0.018848167539267015" fill="rgb( 0, 0, 255 )"/>
    <circle cx="1.8477590650225735" cy="-0.38268343236508984" r="0.018848167539267015" fill="rgb( 0, 0, 255 )"/>
    <circle cx="1.7320508075688774" cy="-0.4999999999999999" r="0.018848167539267015" fill="rgb( 0, 0, 255 )"/>
    <circle cx="1.5867066805824703" cy="-0.6087614290087207" r="0.018848167539267015" fill="rgb( 0, 0, 255 )"/>
    <circle cx="1.4142135623730951" cy="-0.7071067811865476" r="0.018848167539267015" fill="rgb( 0, 0, 255 )"/>
    <circle cx="1.2175228580174415" cy="-0.793353340291235" r="0.018848167539267015" fill="rgb( 0, 0, 255 )"/>
    <circle cx="1" cy="-0.8660254037844386" r="0.018848167539267015" fill="rgb( 0, 0, 255 )"/>
    <circle cx="0.7653668647301796" cy="-0.9238795325112867" r="0.018848167539267015" fill="rgb( 0, 0, 255 )"/>
    <circle cx="0.5176380902050417" cy="-0.9659258262890683" r="0.018848167539267015" fill="rgb( 0, 0, 255 )"/>
    <circle cx="0.26105238444010326" cy="-0.9914448613738104" r="0.018848167539267015" fill="rgb( 0, 0, 255 )"/>
    <circle cx="0" cy="-1" r="0.018848167539267015" fill="rgb( 0, 0, 255 )"/>
    <circle cx="-0.00000000000000006123233995736766" cy="-1" r="0.018848167539267015" fill="rgb( 0, 0, 255 )"/>
    <circle cx="-0.1305261922200517" cy="-0.9914448613738104" r="0.018848167539267015" fill="rgb( 0, 0, 255 )"/>
    <circle cx="-0.25881904510252074" cy="-0.9659258262890683" r="0.018848167539267015" fill="rgb( 0, 0, 255 )"/>
    <circle cx="-0.38268343236508984" cy="-0.9238795325112867" r="0.018848167539267015" fill="rgb( 0, 0, 255 )"/>
    <circle cx="-0.4999999999999999" cy="-0.8660254037844387" r="0.018848167539267015" fill="rgb( 0, 0, 255 )"/>
    <circle cx="-0.6087614290087207" cy="-0.7933533402912352" r="0.018848167539267015" fill="rgb( 0, 0, 255 )"/>
    <circle cx="-0.7071067811865476" cy="-0.7071067811865476" r="0.018848167539267015" fill="rgb( 0, 0, 255 )"/>
    <circle cx="-0.793353340291235" cy="-0.6087614290087208" r="0.018848167539267015" fill="rgb( 0, 0, 255 )"/>
    <circle cx="-0.8660254037844386" cy="-0.5" r="0.018848167539267015" fill="rgb( 0, 0, 255 )"/>
    <circle cx="-0.9238795325112867" cy="-0.3826834323650898" r="0.018848167539267015" fill="rgb( 0, 0, 255 )"/>
    <circle cx="-0.9659258262890683" cy="-0.25881904510252085" r="0.018848167539267015" fill="rgb( 0, 0, 255 )"/>
    <circle cx="-0.9914448613738104" cy="-0.13052619222005163" r="0.018848167539267015" fill="rgb( 0, 0, 255 )"/>
    <circle cx="-1" cy="0" r="0.018848167539267015" fill="rgb( 0, 0, 255 )"/>
    <circle cx="-1" cy="0.00000000000000006123233995736766" r="0.018848167539267015" fill="rgb( 0, 0, 255 )"/>
    <circle cx="-0.9914448613738104" cy="0.1305261922200517" r="0.018848167539267015" fill="rgb( 0, 0, 255 )"/>
    <circle cx="-0.9659258262890683" cy="0.25881904510252074" r="0.018848167539267015" fill="rgb( 0, 0, 255 )"/>
    <circle cx="-0.9238795325112867" cy="0.38268343236508984" r="0.018848167539267015" fill="rgb( 0, 0, 255 )"/>
    <circle cx="-0.8660254037844387" cy="0.4999999999999999" r="0.018848167539267015" fill="rgb( 0, 0, 255 )"/>
    <circle cx="-0.7933533402912352" cy="0.6087614290087207" r="0.018848167539267015" fill="rgb( 0, 0, 255 )"/>
    <circle cx="-0.7071067811865476" cy="0.7071067811865476" r="0.018848167539267015" fill="rgb( 0, 0, 255 )"/>
    <circle cx="-0.6087614290087208" cy="0.793353340291235" r="0.018848167539267015" fill="rgb( 0, 0, 255 )"/>
    <circle cx="-0.5" cy="0.8660254037844386" r="0.018848167539267015" fill="rgb( 0, 0, 255 )"/>
    <circle cx="-0.3826834323650898" cy="0.9238795325112867" r="0.018848167539267015" fill="rgb( 0, 0, 255 )"/>
    <circle cx="-0.25881904510252085" cy="0.9659258262890683" r="0.018848167539267015" fill="rgb( 0, 0, 255 )"/>
    <circle cx="-0.13052619222005163" cy="0.9914448613738104" r="0.018848167539267015" fill="rgb( 0, 0, 255 )"/>
    <circle cx="0" cy="1" r="0.018848167539267015" fill="rgb( 0, 0, 255 )"/>
  </g>
</svg>