<svg width="1000" height="666.6666666666666" xmlns="http://www.w3.org/2000/svg">
  <g transform="translate(234.72222222222223, 333.3333333333333) scale(212.2222222222222, -212.2222222222222)">
    <line x1="0" y1="1" x2="-1" y2="1" stroke="rgb( 255, 192, 192 )" stroke-width="0.014136125654450264"/>
    <line x1="2" y1="0" x2="0.5" y2="1.5" stroke="rgb( 255, 192, 192 )" stroke-width="0.014136125654450264"/>
    <line x1="0" y1="-1" x2="1" y2="-1" stroke="rgb( 255, 192, 192 )" stroke-width="0.014136125654450264"/>
    <line x1="-1" y1="0" x2="-1" y2="-1" stroke="rgb( 255, 192, 192 )" stroke-width="0.014136125654450264"/>
    <line x1="0" y1="1" x2="1" y2="1" stroke="rgb( 192, 192, 255 )" stroke-width="0.014136125654450264"/>
    <line x1="2" y1="0" x2="3.5" y2="-1.5" stroke="rgb( 192, 192, 255 )" stroke-width="0.014136125654450264"/>
    <line x1="0" y1="-1" x2="-1" y2="-1" stroke="rgb( 192, 192, 255 )" stroke-width="0.014136125654450264"/>
    <line x1="-1" y1="0" x2="-1" y2="1" stroke="rgb( 192, 192, 255 )" stroke-width="0.014136125654450264"/>
    <circle cx="0" cy="1" r="0.05654450261780106" fill="rgb( 255, 128, 255 )"/>
    <circle cx="2" cy="0" r="0.05654450261780106" fill="rgb( 255, 128, 255 )"/>
    <circle cx="0" cy="-1" r="0.05654450261780106" fill="rgb( 255, 128, 255 )"/>
    <circle cx="-1" cy="0" r="0.05654450261780106" fill="rgb( 255, 128, 255 )"/>
    <circle cx="0" cy="1" r="0.02827225130890053" fill="rgb( 0, 0, 255 )"/>
    <circle cx="0.13855959121030245" cy="0.9919666010097493" r="0.02827225130890053" fill="rgb( 0, 0, 255 )"/>
    <circle cx="0.2890642209192334" cy="0.9697548241832873" r="0.02827225130890053" fill="rgb( 0, 0, 255 )"/>
    <circle cx="0.44713604175324523" cy="0.9355473906118446" r="0.02827225130890053" fill="rgb( 0, 0, 255 )"/>
    <circle cx="0.6094555433772323" cy="0.8905444566227677" r="0.02827225130890053" fill="rgb( 0, 0, 255 )"/>
    <circle cx="0.7738602517697872" cy="0.8349011772389334" r="0.02827225130890053" fill="rgb( 0, 0, 255 )"/>
    <circle cx="0.9393398282201786" cy="0.7677669529663689" r="0.02827225130890053" fill="rgb( 0, 0, 255 )"/>
    <circle cx="1.105930507424813" cy="0.687422832866422" r="0.02827225130890053" fill="rgb( 0, 0, 255 )"/>
    <circle cx="1.274519052838329" cy="0.5915063509461096" r="0.02827225130890053" fill="rgb( 0, 0, 255 )"/>
    <circle cx="1.4465729015254638" cy="0.47730663098582293" r="0.02827225130890053" fill="rgb( 0, 0, 255 )"/>
    <circle cx="1.6238184719933828" cy="0.34210735429568545" r="0.02827225130890053" fill="rgb( 0, 0, 255 )"/>
    <circle cx="1.8078933509501651" cy="0.18355151042364531" r="0.02827225130890053" fill="rgb( 0, 0, 255 )"/>
    <circle cx="2" cy="0" r="0.02827225130890053" fill="rgb( 0, 0, 255 )"/>
    <circle cx="2" cy="-0.00000000000000011102230246251565" r="0.02827225130890053" fill="rgb( 0, 0, 255 )"/>
    <circle cx="2.163237604958719" cy="-0.19098997938104384" r="0.02827225130890053" fill="rgb( 0, 0, 255 )"/>
    <circle cx="2.249823970194425" cy="-0.3673624829040963" r="0.02827225130890053" fill="rgb( 0, 0, 255 )"/>
    <circle cx="2.249264221834349" cy="-0.5242970567027202" r="0.02827225130890053" fill="rgb( 0, 0, 255 )"/>
    <circle cx="2.1584936490538906" cy="-0.6584936490538902" r="0.02827225130890053" fill="rgb( 0, 0, 255 )"/>
    <circle cx="1.9821396497939132" cy="-0.7682709767110003" r="0.02827225130890053" fill="rgb( 0, 0, 255 )"/>
    <circle cx="1.7322330470336313" cy="-0.8535533905932738" r="0.02827225130890053" fill="rgb( 0, 0, 255 )"/>
    <circle cx="1.4273879926788688" cy="-0.9157493210835117" r="0.02827225130890053" fill="rgb( 0, 0, 255 )"/>
    <circle cx="1.0915063509461098" cy="-0.9575317547305483" r="0.02827225130890053" fill="rgb( 0, 0, 255 )"/>
    <circle cx="0.7520953189410786" cy="-0.9825378163287418" r="0.02827225130890053" fill="rgb( 0, 0, 255 )"/>
    <circle cx="0.4383138513266025" cy="-0.9950099527916982" r="0.02827225130890053" fill="rgb( 0, 0, 255 )"/>
    <circle cx="0.17888237381292788" cy="-0.9994050699671477" r="0.02827225130890053" fill="rgb( 0, 0, 255 )"/>
    <circle cx="0" cy="-1" r="0.02827225130890053" fill="rgb( 0, 0, 255 )"/>
    <circle cx="-0.00000000000000006123233995736766" cy="-1" r="0.02827225130890053" fill="rgb( 0, 0, 255 )"/>
    <circle cx="-0.1305261922200517" cy="-0.9914448613738104" r="0.02827225130890053" fill="rgb( 0, 0, 255 )"/>
    <circle cx="-0.25881904510252074" cy="-0.9659258262890683" r="0.02827225130890053" fill="rgb( 0, 0, 255 )"/>
    <circle cx="-0.38268343236508984" cy="-0.9238795325112867" r="0.02827225130890053" fill="rgb( 0, 0, 255 )"/>
    <circle cx="-0.4999999999999999" cy="-0.8660254037844387" r="0.02827225130890053" fill="rgb( 0, 0, 255 )"/>
    <circle cx="-0.6087614290087207" cy="-0.7933533402912352" r="0.02827225130890053" fill="rgb( 0, 0, 255 )"/>
    <circle cx="-0.7071067811865476" cy="-0.7071067811865476" r="0.02827225130890053" fill="rgb( 0, 0, 255 )"/>
    <circle cx="-0.793353340291235" cy="-0.6087614290087208" r="0.02827225130890053" fill="rgb( 0, 0, 255 )"/>
    <circle cx="-0.8660254037844386" cy="-0.5" r="0.02827225130890053" fill="rgb( 0, 0, 255 )"/>
    <circle cx="-0.9238795325112867" cy="-0.3826834323650898" r="0.02827225130890053" fill="rgb( 0, 0, 255 )"/>
    <circle cx="-0.9659258262890683" cy="-0.25881904510252085" r="0.02827225130890053" fill="rgb( 0, 0, 255 )"/>
    <circle cx="-0.9914448613738104" cy="-0.13052619222005163" r="0.02827225130890053" fill="rgb( 0, 0, 255 )"/>
    <circle cx="-1" cy="0" r="0.02827225130890053" fill="rgb( 0, 0, 255 )"/>
    <circle cx="-1" cy="0.00000000000000006123233995736766" r="0.02827225130890053" fill="rgb( 0, 0, 255 )"/>
    <circle cx="-0.9914448613738104" cy="0.1305261922200517" r="0.02827225130890053" fill="rgb( 0, 0, 255 )"/>
    <circle cx="-0.9659258262890683" cy="0.25881904510252074" r="0.02827225130890053" fill="rgb( 0, 0, 255 )"/>
    <circle cx="-0.9238795325112867" cy="0.38268343236508984" r="0.02827225130890053" fill="rgb( 0, 0, 255 )"/>
    <circle cx="-0.8660254037844387" cy="0.4999999999999999" r="0.02827225130890053" fill="rgb( 0, 0, 255 )"/>
    <circle cx="-0.7933533402912352" cy="0.6087614290087207" r="0.02827225130890053" fill="rgb( 0, 0, 255 )"/>
    <circle cx="-0.7071067811865476" cy="0.7071067811865476" r="0.02827225130890053" fill="rgb( 0, 0, 255 )"/>
    <circle cx="-0.6087614290087208" cy="0.793353340291235" r="0.02827225130890053" fill="rgb( 0, 0, 255 )"/>
    <circle cx="-0.5" cy="0.8660254037844386" r="0.02827225130890053" fill="rgb( 0, 0, 255 )"/>
    <circle cx="-0.3826834323650898" cy="0.9238795325112867" r="0.02827225130890053" fill="rgb( 0, 0, 255 )"/>
    <circle cx="-0.25881904510252085" cy="0.9659258262890683" r="0.02827225130890053" fill="rgb( 0, 0, 255 )"/>
    <circle cx="-0.13052619222005163" cy="0.9914448613738104" r="0.02827225130890053" fill="rgb( 0, 0, 255 )"/>
    <circle cx="0" cy="1" r="0.02827225130890053" fill="rgb( 0, 0, 255 )"/>
  </g>
</svg>