<svg width="1000.0" height="555.5555555555555" xmlns="http://www.w3.org/2000/svg">
  <g transform="translate(237.22222222222223, 225.22222222222223) scale(210.22222222222223, -210.22222222222223)">
    <line x1="0.0" y1="1.0" x2="-1.0" y2="1.0" stroke="rgb(255,192,192)" stroke-width="0.01427061310782241"/>
    <line x1="2.0" y1="0.0" x2="1.0" y2="1.0" stroke="rgb(255,192,192)" stroke-width="0.01427061310782241"/>
    <line x1="0.0" y1="-1.0" x2="3.5" y2="-1.5" stroke="rgb(255,192,192)" stroke-width="0.01427061310782241"/>
    <line x1="-1.0" y1="0.0" x2="-1.0" y2="-1.0" stroke="rgb(255,192,192)" stroke-width="0.01427061310782241"/>
    <line x1="0.0" y1="1.0" x2="1.0" y2="1.0" stroke="rgb(192,192,255)" stroke-width="0.01427061310782241"/>
    <line x1="2.0" y1="0.0" x2="3.5" y2="-1.5" stroke="rgb(192,192,255)" stroke-width="0.01427061310782241"/>
    <line x1="0.0" y1="-1.0" x2="-1.0" y2="-1.0" stroke="rgb(192,192,255)" stroke-width="0.01427061310782241"/>
    <line x1="-1.0" y1="0.0" x2="-1.0" y2="1.0" stroke="rgb(192,192,255)" stroke-width="0.01427061310782241"/>
    <circle cx="0.0" cy="1.0" r="0.05708245243128964" fill="rgb(255,128,255)"/>
    <circle cx="2.0" cy="0.0" r="0.05708245243128964" fill="rgb(255,128,255)"/>
    <circle cx="0.0" cy="-1.0" r="0.05708245243128964" fill="rgb(255,128,255)"/>
    <circle cx="-1.0" cy="0.0" r="0.05708245243128964" fill="rgb(255,128,255)"/>
    <circle cx="0.0" cy="1.0" r="0.02854122621564482" fill="rgb(0,0,255)"/>
    <circle cx="0.1390813308462414" cy="0.9914448613738104" r="0.02854122621564482" fill="rgb(0,0,255)"/>
    <circle cx="0.2928932188134524" cy="0.9659258262890683" r="0.02854122621564482" fill="rgb(0,0,255)"/>
    <circle cx="0.4588038998538031" cy="0.9238795325112867" r="0.02854122621564482" fill="rgb(0,0,255)"/>
    <circle cx="0.6339745962155613" cy="0.8660254037844387" r="0.02854122621564482" fill="rgb(0,0,255)"/>
    <circle cx="0.8154080887174855" cy="0.7933533402912352" r="0.02854122621564482" fill="rgb(0,0,255)"/>
    <circle cx="0.9999999999999999" cy="0.7071067811865476" r="0.02854122621564482" fill="rgb(0,0,255)"/>
    <circle cx="1.184591911282514" cy="0.6087614290087208" r="0.02854122621564482" fill="rgb(0,0,255)"/>
    <circle cx="1.3660254037844386" cy="0.5" r="0.02854122621564482" fill="rgb(0,0,255)"/>
    <circle cx="1.541196100146197" cy="0.3826834323650898" r="0.02854122621564482" fill="rgb(0,0,255)"/>
    <circle cx="1.7071067811865475" cy="0.25881904510252085" r="0.02854122621564482" fill="rgb(0,0,255)"/>
    <circle cx="1.860918669153759" cy="0.13052619222005163" r="0.02854122621564482" fill="rgb(0,0,255)"/>
    <circle cx="2.0" cy="0.0" r="0.02854122621564482" fill="rgb(0,0,255)"/>
    <circle cx="2.0" cy="-1.1102230246251565e-16" r="0.02854122621564482" fill="rgb(0,0,255)"/>
    <circle cx="2.165846303138414" cy="-0.19151171901698277" r="0.02854122621564482" fill="rgb(0,0,255)"/>
    <circle cx="2.26896895966552" cy="-0.37119148079831527" r="0.02854122621564482" fill="rgb(0,0,255)"/>
    <circle cx="2.3076035123371383" cy="-0.5359649148032781" r="0.02854122621564482" fill="rgb(0,0,255)"/>
    <circle cx="2.2810889132455356" cy="-0.6830127018922192" r="0.02854122621564482" fill="rgb(0,0,255)"/>
    <circle cx="2.1898788345324043" cy="-0.8098188136586986" r="0.02854122621564482" fill="rgb(0,0,255)"/>
    <circle cx="2.0355339059327378" cy="-0.9142135623730951" r="0.02854122621564482" fill="rgb(0,0,255)"/>
    <circle cx="1.8206950119673755" cy="-0.9944107249412131" r="0.02854122621564482" fill="rgb(0,0,255)"/>
    <circle cx="1.549038105676658" cy="-1.049038105676658" r="0.02854122621564482" fill="rgb(0,0,255)"/>
    <circle cx="1.2252113120447443" cy="-1.0771610149494748" r="0.02854122621564482" fill="rgb(0,0,255)"/>
    <circle cx="0.8547553972924256" cy="-1.078298261984863" r="0.02854122621564482" fill="rgb(0,0,255)"/>
    <circle cx="0.44400896483089625" cy="-1.0524303881707413" r="0.02854122621564482" fill="rgb(0,0,255)"/>
    <circle cx="0.0" cy="-1.0" r="0.02854122621564482" fill="rgb(0,0,255)"/>
    <circle cx="-6.123233995736766e-17" cy="-1.0" r="0.02854122621564482" fill="rgb(0,0,255)"/>
    <circle cx="-0.1305261922200517" cy="-0.9914448613738104" r="0.02854122621564482" fill="rgb(0,0,255)"/>
    <circle cx="-0.25881904510252074" cy="-0.9659258262890683" r="0.02854122621564482" fill="rgb(0,0,255)"/>
    <circle cx="-0.38268343236508984" cy="-0.9238795325112867" r="0.02854122621564482" fill="rgb(0,0,255)"/>
    <circle cx="-0.4999999999999999" cy="-0.8660254037844387" r="0.02854122621564482" fill="rgb(0,0,255)"/>
    <circle cx="-0.6087614290087207" cy="-0.7933533402912352" r="0.02854122621564482" fill="rgb(0,0,255)"/>
    <circle cx="-0.7071067811865476" cy="-0.7071067811865476" r="0.02854122621564482" fill="rgb(0,0,255)"/>
    <circle cx="-0.793353340291235" cy="-0.6087614290087208" r="0.02854122621564482" fill="rgb(0,0,255)"/>
    <circle cx="-0.8660254037844386" cy="-0.5" r="0.02854122621564482" fill="rgb(0,0,255)"/>
    <circle cx="-0.9238795325112867" cy="-0.3826834323650898" r="0.02854122621564482" fill="rgb(0,0,255)"/>
    <circle cx="-0.9659258262890683" cy="-0.25881904510252085" r="0.02854122621564482" fill="rgb(0,0,255)"/>
    <circle cx="-0.9914448613738104" cy="-0.13052619222005163" r="0.02854122621564482" fill="rgb(0,0,255)"/>
    <circle cx="-1.0" cy="0.0" r="0.02854122621564482" fill="rgb(0,0,255)"/>
    <circle cx="-1.0" cy="6.123233995736766e-17" r="0.02854122621564482" fill="rgb(0,0,255)"/>
    <circle cx="-0.9914448613738104" cy="0.1305261922200517" r="0.02854122621564482" fill="rgb(0,0,255)"/>
    <circle cx="-0.9659258262890683" cy="0.25881904510252074" r="0.02854122621564482" fill="rgb(0,0,255)"/>
    <circle cx="-0.9238795325112867" cy="0.38268343236508984" r="0.02854122621564482" fill="rgb(0,0,255)"/>
    <circle cx="-0.8660254037844387" cy="0.4999999999999999" r="0.02854122621564482" fill="rgb(0,0,255)"/>
    <circle cx="-0.7933533402912352" cy="0.6087614290087207" r="0.02854122621564482" fill="rgb(0,0,255)"/>
    <circle cx="-0.7071067811865476" cy="0.7071067811865476" r="0.02854122621564482" fill="rgb(0,0,255)"/>
    <circle cx="-0.6087614290087208" cy="0.793353340291235" r="0.02854122621564482" fill="rgb(0,0,255)"/>
    <circle cx="-0.5" cy="0.8660254037844386" r="0.02854122621564482" fill="rgb(0,0,255)"/>
    <circle cx="-0.3826834323650898" cy="0.9238795325112867" r="0.02854122621564482" fill="rgb(0,0,255)"/>
    <circle cx="-0.25881904510252085" cy="0.9659258262890683" r="0.02854122621564482" fill="rgb(0,0,255)"/>
    <circle cx="-0.13052619222005163" cy="0.9914448613738104" r="0.02854122621564482" fill="rgb(0,0,255)"/>
    <circle cx="0.0" cy="1.0" r="0.02854122621564482" fill="rgb(0,0,255)"/>
  </g>
</svg>