<svg width="1000.0" height="666.6666666666666" xmlns="http://www.w3.org/2000/svg">
  <g transform="translate(340.83333333333337, 333.3333333333333) scale(318.3333333333333, -318.3333333333333)">
    <line x1="0.0" y1="1.0" x2="-1.0" y2="1.0" stroke="rgb(255,192,192)" stroke-width="0.009424083769633508"/>
    <line x1="2.0" y1="0.0" x2="2.0" y2="1.0" stroke="rgb(255,192,192)" stroke-width="0.009424083769633508"/>
    <line x1="0.0" y1="-1.0" x2="1.0" y2="-1.0" stroke="rgb(255,192,192)" stroke-width="0.009424083769633508"/>
    <line x1="-1.0" y1="0.0" x2="-1.0" y2="-1.0" stroke="rgb(255,192,192)" stroke-width="0.009424083769633508"/>
    <line x1="0.0" y1="1.0" x2="1.0" y2="1.0" stroke="rgb(192,192,255)" stroke-width="0.009424083769633508"/>
    <line x1="2.0" y1="0.0" x2="2.0" y2="-1.0" stroke="rgb(192,192,255)" stroke-width="0.009424083769633508"/>
    <line x1="0.0" y1="-1.0" x2="-1.0" y2="-1.0" stroke="rgb(192,192,255)" stroke-width="0.009424083769633508"/>
    <line x1="-1.0" y1="0.0" x2="-1.0" y2="1.0" stroke="rgb(192,192,255)" stroke-width="0.009424083769633508"/>
    <circle cx="0.0" cy="1.0" r="0.03769633507853403" fill="rgb(255,128,255)"/>
    <circle cx="2.0" cy="0.0" r="0.03769633507853403" fill="rgb(255,128,255)"/>
    <circle cx="0.0" cy="-1.0" r="0.03769633507853403" fill="rgb(255,128,255)"/>
    <circle cx="-1.0" cy="0.0" r="0.03769633507853403" fill="rgb(255,128,255)"/>
    <circle cx="0.0" cy="1.0" r="0.018848167539267015" fill="rgb(0,0,255)"/>
    <circle cx="0.11598774980630953" cy="0.9985802427620445" r="0.018848167539267015" fill="rgb(0,0,255)"/>
    <circle cx="0.2894767131975978" cy="0.9888354503153699" r="0.018848167539267015" fill="rgb(0,0,255)"/>
    <circle cx="0.5062815664617708" cy="0.9633883476483185" r="0.018848167539267015" fill="rgb(0,0,255)"/>
    <circle cx="0.7499999999999999" cy="0.9166666666666667" r="0.018848167539267015" fill="rgb(0,0,255)"/>
    <circle cx="1.003434922627171" cy="0.8455873010630253" r="0.018848167539267015" fill="rgb(0,0,255)"/>
    <circle cx="1.25" cy="0.75" r="0.018848167539267015" fill="rgb(0,0,255)"/>
    <circle cx="1.4749968236142852" cy="0.6328444451784316" r="0.018848167539267015" fill="rgb(0,0,255)"/>
    <circle cx="1.6666666666666665" cy="0.5000000000000001" r="0.018848167539267015" fill="rgb(0,0,255)"/>
    <circle cx="1.8169417382415922" cy="0.35983495705504476" r="0.018848167539267015" fill="rgb(0,0,255)"/>
    <circle cx="1.921848152207589" cy="0.22248941508981745" r="0.018848167539267015" fill="rgb(0,0,255)"/>
    <circle cx="1.9815431559065786" cy="0.09895066295084376" r="0.018848167539267015" fill="rgb(0,0,255)"/>
    <circle cx="2.0" cy="0.0" r="0.018848167539267015" fill="rgb(0,0,255)"/>
    <circle cx="2.0" cy="0.0" r="0.018848167539267015" fill="rgb(0,0,255)"/>
    <circle cx="1.9815431559065786" cy="-0.09895066295084369" r="0.018848167539267015" fill="rgb(0,0,255)"/>
    <circle cx="1.9218481522075892" cy="-0.2224894150898172" r="0.018848167539267015" fill="rgb(0,0,255)"/>
    <circle cx="1.8169417382415922" cy="-0.35983495705504465" r="0.018848167539267015" fill="rgb(0,0,255)"/>
    <circle cx="1.6666666666666667" cy="-0.5" r="0.018848167539267015" fill="rgb(0,0,255)"/>
    <circle cx="1.4749968236142856" cy="-0.6328444451784314" r="0.018848167539267015" fill="rgb(0,0,255)"/>
    <circle cx="1.25" cy="-0.75" r="0.018848167539267015" fill="rgb(0,0,255)"/>
    <circle cx="1.0034349226271715" cy="-0.845587301063025" r="0.018848167539267015" fill="rgb(0,0,255)"/>
    <circle cx="0.7500000000000002" cy="-0.9166666666666666" r="0.018848167539267015" fill="rgb(0,0,255)"/>
    <circle cx="0.506281566461771" cy="-0.9633883476483185" r="0.018848167539267015" fill="rgb(0,0,255)"/>
    <circle cx="0.28947671319759816" cy="-0.9888354503153698" r="0.018848167539267015" fill="rgb(0,0,255)"/>
    <circle cx="0.11598774980630977" cy="-0.9985802427620445" r="0.018848167539267015" fill="rgb(0,0,255)"/>
    <circle cx="0.0" cy="-1.0" r="0.018848167539267015" fill="rgb(0,0,255)"/>
    <circle cx="0.0" cy="-1.0" r="0.018848167539267015" fill="rgb(0,0,255)"/>
    <circle cx="-0.09895066295084369" cy="-0.9985802427620445" r="0.018848167539267015" fill="rgb(0,0,255)"/>
    <circle cx="-0.2224894150898172" cy="-0.9888354503153699" r="0.018848167539267015" fill="rgb(0,0,255)"/>
    <circle cx="-0.35983495705504465" cy="-0.9633883476483185" r="0.018848167539267015" fill="rgb(0,0,255)"/>
    <circle cx="-0.5" cy="-0.9166666666666667" r="0.018848167539267015" fill="rgb(0,0,255)"/>
    <circle cx="-0.6328444451784314" cy="-0.8455873010630253" r="0.018848167539267015" fill="rgb(0,0,255)"/>
    <circle cx="-0.75" cy="-0.75" r="0.018848167539267015" fill="rgb(0,0,255)"/>
    <circle cx="-0.845587301063025" cy="-0.6328444451784316" r="0.018848167539267015" fill="rgb(0,0,255)"/>
    <circle cx="-0.9166666666666666" cy="-0.5000000000000001" r="0.018848167539267015" fill="rgb(0,0,255)"/>
    <circle cx="-0.9633883476483185" cy="-0.35983495705504476" r="0.018848167539267015" fill="rgb(0,0,255)"/>
    <circle cx="-0.9888354503153698" cy="-0.22248941508981745" r="0.018848167539267015" fill="rgb(0,0,255)"/>
    <circle cx="-0.9985802427620445" cy="-0.09895066295084376" r="0.018848167539267015" fill="rgb(0,0,255)"/>
    <circle cx="-1.0" cy="0.0" r="0.018848167539267015" fill="rgb(0,0,255)"/>
    <circle cx="-1.0" cy="0.0" r="0.018848167539267015" fill="rgb(0,0,255)"/>
    <circle cx="-0.9985802427620445" cy="0.09895066295084369" r="0.018848167539267015" fill="rgb(0,0,255)"/>
    <circle cx="-0.9888354503153699" cy="0.2224894150898172" r="0.018848167539267015" fill="rgb(0,0,255)"/>
    <circle cx="-0.9633883476483185" cy="0.35983495705504465" r="0.018848167539267015" fill="rgb(0,0,255)"/>
    <circle cx="-0.9166666666666667" cy="0.5" r="0.018848167539267015" fill="rgb(0,0,255)"/>
    <circle cx="-0.8455873010630253" cy="0.6328444451784314" r="0.018848167539267015" fill="rgb(0,0,255)"/>
    <circle cx="-0.75" cy="0.75" r="0.018848167539267015" fill="rgb(0,0,255)"/>
    <circle cx="-0.6328444451784316" cy="0.845587301063025" r="0.018848167539267015" fill="rgb(0,0,255)"/>
    <circle cx="-0.5000000000000001" cy="0.9166666666666666" r="0.018848167539267015" fill="rgb(0,0,255)"/>
    <circle cx="-0.35983495705504476" cy="0.9633883476483185" r="0.018848167539267015" fill="rgb(0,0,255)"/>
    <circle cx="-0.22248941508981745" cy="0.9888354503153698" r="0.018848167539267015" fill="rgb(0,0,255)"/>
    <circle cx="-0.09895066295084376" cy="0.9985802427620445" r="0.018848167539267015" fill="rgb(0,0,255)"/>
    <circle cx="0.0" cy="1.0" r="0.018848167539267015" fill="rgb(0,0,255)"/>
  </g>
</svg>