<svg width="1000.0" height="1187.5" xmlns="http://www.w3.org/2000/svg">
  <g transform="translate(75.625, 1230.3125) scale(121.25, -121.25)">
    <line x1="1.0" y1="2.0" x2="-0.5" y2="0.5" stroke="rgb(255,192,192)" stroke-width="0.024742268041237116"/>
    <line x1="3.0" y1="5.0" x2="1.5" y2="6.5" stroke="rgb(255,192,192)" stroke-width="0.024742268041237116"/>
    <line x1="6.0" y1="7.0" x2="4.5" y2="4.0" stroke="rgb(255,192,192)" stroke-width="0.024742268041237116"/>
    <line x1="1.0" y1="2.0" x2="2.5" y2="3.5" stroke="rgb(192,192,255)" stroke-width="0.024742268041237116"/>
    <line x1="3.0" y1="5.0" x2="4.5" y2="3.5" stroke="rgb(192,192,255)" stroke-width="0.024742268041237116"/>
    <line x1="6.0" y1="7.0" x2="7.5" y2="10.0" stroke="rgb(192,192,255)" stroke-width="0.024742268041237116"/>
    <circle cx="1.0" cy="2.0" r="0.09896907216494846" fill="rgb(255,128,255)"/>
    <circle cx="3.0" cy="5.0" r="0.09896907216494846" fill="rgb(255,128,255)"/>
    <circle cx="6.0" cy="7.0" r="0.09896907216494846" fill="rgb(255,128,255)"/>
    <circle cx="1.0" cy="2.0" r="0.04948453608247423" fill="rgb(0,0,255)"/>
    <circle cx="1.1990233783712945" cy="2.2117524340849957" r="0.04948453608247423" fill="rgb(0,0,255)"/>
    <circle cx="1.397607658720809" cy="2.4623138155854924" r="0.04948453608247423" fill="rgb(0,0,255)"/>
    <circle cx="1.5887496660908755" cy="2.7582129983840518" r="0.04948453608247423" fill="rgb(0,0,255)"/>
    <circle cx="1.7679491924311226" cy="3.098076211353316" r="0.04948453608247423" fill="rgb(0,0,255)"/>
    <circle cx="1.933369799472067" cy="3.472399154762418" r="0.04948453608247423" fill="rgb(0,0,255)"/>
    <circle cx="2.085786437626905" cy="3.8639610306789276" r="0.04948453608247423" fill="rgb(0,0,255)"/>
    <circle cx="2.2283264882170895" cy="4.24885629006998" r="0.04948453608247423" fill="rgb(0,0,255)"/>
    <circle cx="2.3660254037844384" cy="4.598076211353316" r="0.04948453608247423" fill="rgb(0,0,255)"/>
    <circle cx="2.505231185342919" cy="4.879533341943694" r="0.04948453608247423" fill="rgb(0,0,255)"/>
    <circle cx="2.6529025984960133" cy="5.060390026938809" r="0.04948453608247423" fill="rgb(0,0,255)"/>
    <circle cx="2.815853559543502" cy="5.1095299129522" r="0.04948453608247423" fill="rgb(0,0,255)"/>
    <circle cx="3.0" cy="5.0" r="0.04948453608247423" fill="rgb(0,0,255)"/>
    <circle cx="3.0" cy="5.0" r="0.04948453608247423" fill="rgb(0,0,255)"/>
    <circle cx="3.208621996269362" cy="4.834675436497525" r="0.04948453608247423" fill="rgb(0,0,255)"/>
    <circle cx="3.439339828220179" cy="4.734860038228699" r="0.04948453608247423" fill="rgb(0,0,255)"/>
    <circle cx="3.6882058497807044" cy="4.7040643457634195" r="0.04948453608247423" fill="rgb(0,0,255)"/>
    <circle cx="3.950961894323342" cy="4.743430139592793" r="0.04948453608247423" fill="rgb(0,0,255)"/>
    <circle cx="4.223112133076228" cy="4.851669002415294" r="0.04948453608247423" fill="rgb(0,0,255)"/>
    <circle cx="4.5" cy="5.025126265847083" r="0.04948453608247423" fill="rgb(0,0,255)"/>
    <circle cx="4.776887866923771" cy="5.257966391890326" r="0.04948453608247423" fill="rgb(0,0,255)"/>
    <circle cx="5.049038105676658" cy="5.542468245269452" r="0.04948453608247423" fill="rgb(0,0,255)"/>
    <circle cx="5.311794150219296" cy="5.869411886575988" r="0.04948453608247423" fill="rgb(0,0,255)"/>
    <circle cx="5.560660171779821" cy="6.228532911900739" r="0.04948453608247423" fill="rgb(0,0,255)"/>
    <circle cx="5.791378003730638" cy="6.609016353372698" r="0.04948453608247423" fill="rgb(0,0,255)"/>
    <circle cx="6.0" cy="7.0" r="0.04948453608247423" fill="rgb(0,0,255)"/>
  </g>
</svg>