<svg width="1000" height="500" xmlns="http://www.w3.org/2000/svg">
  <g transform="translate(265, 250) scale(235, -235)">
    <line x1="0" y1="1" x2="-1" y2="1" stroke="rgb( 255, 192, 192 )" stroke-width="0.012766"/>
    <line x1="2" y1="0" x2="1" y2="1" stroke="rgb( 255, 192, 192 )" stroke-width="0.012766"/>
    <line x1="0" y1="-1" x2="3" y2="-1" stroke="rgb( 255, 192, 192 )" stroke-width="0.012766"/>
    <line x1="-1" y1="0" x2="-1" y2="-1" stroke="rgb( 255, 192, 192 )" stroke-width="0.012766"/>
    <line x1="0" y1="1" x2="1" y2="1" stroke="rgb( 192, 192, 255 )" stroke-width="0.012766"/>
    <line x1="2" y1="0" x2="3" y2="-1" stroke="rgb( 192, 192, 255 )" stroke-width="0.012766"/>
    <line x1="0" y1="-1" x2="-1" y2="-1" stroke="rgb( 192, 192, 255 )" stroke-width="0.012766"/>
    <line x1="-1" y1="0" x2="-1" y2="1" stroke="rgb( 192, 192, 255 )" stroke-width="0.012766"/>
    <circle cx="0" cy="1" r="0.0510638" fill="rgb( 255, 128, 255 )"/>
    <circle cx="2" cy="0" r="0.0510638" fill="rgb( 255, 128, 255 )"/>
    <circle cx="0" cy="-1" r="0.0510638" fill="rgb( 255, 128, 255 )"/>
    <circle cx="-1" cy="0" r="0.0510638" fill="rgb( 255, 128, 255 )"/>
    <circle cx="0" cy="1" r="0.0255319" fill="rgb( 0, 0, 255 )"/>
    <circle cx="0.10037" cy="0.99858" r="0.0255319" fill="rgb( 0, 0, 255 )"/>
    <circle cx="0.233654" cy="0.988835" r="0.0255319" fill="rgb( 0, 0, 255 )"/>
    <circle cx="0.396447" cy="0.963388" r="0.0255319" fill="rgb( 0, 0, 255 )"/>
    <circle cx="0.583333" cy="0.916667" r="0.0255319" fill="rgb( 0, 0, 255 )"/>
    <circle cx="0.787257" cy="0.845587" r="0.0255319" fill="rgb( 0, 0, 255 )"/>
    <circle cx="1" cy="0.75" r="0.0255319" fill="rgb( 0, 0, 255 )"/>
    <circle cx="1.21274" cy="0.632844" r="0.0255319" fill="rgb( 0, 0, 255 )"/>
    <circle cx="1.41667" cy="0.5" r="0.0255319" fill="rgb( 0, 0, 255 )"/>
    <circle cx="1.60355" cy="0.359835" r="0.0255319" fill="rgb( 0, 0, 255 )"/>
    <circle cx="1.76635" cy="0.222489" r="0.0255319" fill="rgb( 0, 0, 255 )"/>
    <circle cx="1.89963" cy="0.0989507" r="0.0255319" fill="rgb( 0, 0, 255 )"/>
    <circle cx="2" cy="0" r="0.0255319" fill="rgb( 0, 0, 255 )"/>
    <circle cx="2" cy="0" r="0.0255319" fill="rgb( 0, 0, 255 )"/>
    <circle cx="2.09469" cy="-0.0989507" r="0.0255319" fill="rgb( 0, 0, 255 )"/>
    <circle cx="2.189" cy="-0.222489" r="0.0255319" fill="rgb( 0, 0, 255 )"/>
    <circle cx="2.25" cy="-0.359835" r="0.0255319" fill="rgb( 0, 0, 255 )"/>
    <circle cx="2.25" cy="-0.5" r="0.0255319" fill="rgb( 0, 0, 255 )"/>
    <circle cx="2.16961" cy="-0.632844" r="0.0255319" fill="rgb( 0, 0, 255 )"/>
    <circle cx="2" cy="-0.75" r="0.0255319" fill="rgb( 0, 0, 255 )"/>
    <circle cx="1.74412" cy="-0.845587" r="0.0255319" fill="rgb( 0, 0, 255 )"/>
    <circle cx="1.41667" cy="-0.916667" r="0.0255319" fill="rgb( 0, 0, 255 )"/>
    <circle cx="1.04289" cy="-0.963388" r="0.0255319" fill="rgb( 0, 0, 255 )"/>
    <circle cx="0.656304" cy="-0.988835" r="0.0255319" fill="rgb( 0, 0, 255 )"/>
    <circle cx="0.295432" cy="-0.99858" r="0.0255319" fill="rgb( 0, 0, 255 )"/>
    <circle cx="0" cy="-1" r="0.0255319" fill="rgb( 0, 0, 255 )"/>
    <circle cx="0" cy="-1" r="0.0255319" fill="rgb( 0, 0, 255 )"/>
    <circle cx="-0.0989507" cy="-0.99858" r="0.0255319" fill="rgb( 0, 0, 255 )"/>
    <circle cx="-0.222489" cy="-0.988835" r="0.0255319" fill="rgb( 0, 0, 255 )"/>
    <circle cx="-0.359835" cy="-0.963388" r="0.0255319" fill="rgb( 0, 0, 255 )"/>
    <circle cx="-0.5" cy="-0.916667" r="0.0255319" fill="rgb( 0, 0, 255 )"/>
    <circle cx="-0.632844" cy="-0.845587" r="0.0255319" fill="rgb( 0, 0, 255 )"/>
    <circle cx="-0.75" cy="-0.75" r="0.0255319" fill="rgb( 0, 0, 255 )"/>
    <circle cx="-0.845587" cy="-0.632844" r="0.0255319" fill="rgb( 0, 0, 255 )"/>
    <circle cx="-0.916667" cy="-0.5" r="0.0255319" fill="rgb( 0, 0, 255 )"/>
    <circle cx="-0.963388" cy="-0.359835" r="0.0255319" fill="rgb( 0, 0, 255 )"/>
    <circle cx="-0.988835" cy="-0.222489" r="0.0255319" fill="rgb( 0, 0, 255 )"/>
    <circle cx="-0.99858" cy="-0.0989507" r="0.0255319" fill="rgb( 0, 0, 255 )"/>
    <circle cx="-1" cy="0" r="0.0255319" fill="rgb( 0, 0, 255 )"/>
    <circle cx="-1" cy="0" r="0.0255319" fill="rgb( 0, 0, 255 )"/>
    <circle cx="-0.99858" cy="0.0989507" r="0.0255319" fill="rgb( 0, 0, 255 )"/>
    <circle cx="-0.988835" cy="0.222489" r="0.0255319" fill="rgb( 0, 0, 255 )"/>
    <circle cx="-0.963388" cy="0.359835" r="0.0255319" fill="rgb( 0, 0, 255 )"/>
    <circle cx="-0.916667" cy="0.5" r="0.0255319" fill="rgb( 0, 0, 255 )"/>
    <circle cx="-0.845587" cy="0.632844" r="0.0255319" fill="rgb( 0, 0, 255 )"/>
    <circle cx="-0.75" cy="0.75" r="0.0255319" fill="rgb( 0, 0, 255 )"/>
    <circle cx="-0.632844" cy="0.845587" r="0.0255319" fill="rgb( 0, 0, 255 )"/>
    <circle cx="-0.5" cy="0.916667" r="0.0255319" fill="rgb( 0, 0, 255 )"/>
    <circle cx="-0.359835" cy="0.963388" r="0.0255319" fill="rgb( 0, 0, 255 )"/>
    <circle cx="-0.222489" cy="0.988835" r="0.0255319" fill="rgb( 0, 0, 255 )"/>
    <circle cx="-0.0989507" cy="0.99858" r="0.0255319" fill="rgb( 0, 0, 255 )"/>
    <circle cx="0" cy="1" r="0.0255319" fill="rgb( 0, 0, 255 )"/>
  </g>
</svg>