<svg width="1000" height="1000" xmlns="http://www.w3.org/2000/svg">
  <g transform="translate(500, 500) scale(485, -485)">
    <line x1="0" y1="1" x2="-1" y2="1" stroke="rgb( 255, 192, 192 )" stroke-width="0.00618557"/>
    <line x1="1" y1="0" x2="1" y2="1" stroke="rgb( 255, 192, 192 )" stroke-width="0.00618557"/>
    <line x1="0" y1="-1" x2="1" y2="-1" stroke="rgb( 255, 192, 192 )" stroke-width="0.00618557"/>
    <line x1="-1" y1="0" x2="-1" y2="-1" stroke="rgb( 255, 192, 192 )" stroke-width="0.00618557"/>
    <line x1="0" y1="1" x2="1" y2="1" stroke="rgb( 192, 192, 255 )" stroke-width="0.00618557"/>
    <line x1="1" y1="0" x2="1" y2="-1" stroke="rgb( 192, 192, 255 )" stroke-width="0.00618557"/>
    <line x1="0" y1="-1" x2="-1" y2="-1" stroke="rgb( 192, 192, 255 )" stroke-width="0.00618557"/>
    <line x1="-1" y1="0" x2="-1" y2="1" stroke="rgb( 192, 192, 255 )" stroke-width="0.00618557"/>
    <circle cx="0" cy="1" r="0.0247423" fill="rgb( 255, 128, 255 )"/>
    <circle cx="1" cy="0" r="0.0247423" fill="rgb( 255, 128, 255 )"/>
    <circle cx="0" cy="-1" r="0.0247423" fill="rgb( 255, 128, 255 )"/>
    <circle cx="-1" cy="0" r="0.0247423" fill="rgb( 255, 128, 255 )"/>
    <circle cx="6.12323e-17" cy="1" r="0.0123711" fill="rgb( 0, 0, 255 )"/>
    <circle cx="0.130526" cy="0.991445" r="0.0123711" fill="rgb( 0, 0, 255 )"/>
    <circle cx="0.258819" cy="0.965926" r="0.0123711" fill="rgb( 0, 0, 255 )"/>
    <circle cx="0.382683" cy="0.92388" r="0.0123711" fill="rgb( 0, 0, 255 )"/>
    <circle cx="0.5" cy="0.866025" r="0.0123711" fill="rgb( 0, 0, 255 )"/>
    <circle cx="0.608761" cy="0.793353" r="0.0123711" fill="rgb( 0, 0, 255 )"/>
    <circle cx="0.707107" cy="0.707107" r="0.0123711" fill="rgb( 0, 0, 255 )"/>
    <circle cx="0.793353" cy="0.608761" r="0.0123711" fill="rgb( 0, 0, 255 )"/>
    <circle cx="0.866025" cy="0.5" r="0.0123711" fill="rgb( 0, 0, 255 )"/>
    <circle cx="0.92388" cy="0.382683" r="0.0123711" fill="rgb( 0, 0, 255 )"/>
    <circle cx="0.965926" cy="0.258819" r="0.0123711" fill="rgb( 0, 0, 255 )"/>
    <circle cx="0.991445" cy="0.130526" r="0.0123711" fill="rgb( 0, 0, 255 )"/>
    <circle cx="1" cy="0" r="0.0123711" fill="rgb( 0, 0, 255 )"/>
    <circle cx="1" cy="-6.12323e-17" r="0.0123711" fill="rgb( 0, 0, 255 )"/>
    <circle cx="0.991445" cy="-0.130526" r="0.0123711" fill="rgb( 0, 0, 255 )"/>
    <circle cx="0.965926" cy="-0.258819" r="0.0123711" fill="rgb( 0, 0, 255 )"/>
    <circle cx="0.92388" cy="-0.382683" r="0.0123711" fill="rgb( 0, 0, 255 )"/>
    <circle cx="0.866025" cy="-0.5" r="0.0123711" fill="rgb( 0, 0, 255 )"/>
    <circle cx="0.793353" cy="-0.608761" r="0.0123711" fill="rgb( 0, 0, 255 )"/>
    <circle cx="0.707107" cy="-0.707107" r="0.0123711" fill="rgb( 0, 0, 255 )"/>
    <circle cx="0.608761" cy="-0.793353" r="0.0123711" fill="rgb( 0, 0, 255 )"/>
    <circle cx="0.5" cy="-0.866025" r="0.0123711" fill="rgb( 0, 0, 255 )"/>
    <circle cx="0.382683" cy="-0.92388" r="0.0123711" fill="rgb( 0, 0, 255 )"/>
    <circle cx="0.258819" cy="-0.965926" r="0.0123711" fill="rgb( 0, 0, 255 )"/>
    <circle cx="0.130526" cy="-0.991445" r="0.0123711" fill="rgb( 0, 0, 255 )"/>
    <circle cx="0" cy="-1" r="0.0123711" fill="rgb( 0, 0, 255 )"/>
    <circle cx="-6.12323e-17" cy="-1" r="0.0123711" fill="rgb( 0, 0, 255 )"/>
    <circle cx="-0.130526" cy="-0.991445" r="0.0123711" fill="rgb( 0, 0, 255 )"/>
    <circle cx="-0.258819" cy="-0.965926" r="0.0123711" fill="rgb( 0, 0, 255 )"/>
    <circle cx="-0.382683" cy="-0.92388" r="0.0123711" fill="rgb( 0, 0, 255 )"/>
    <circle cx="-0.5" cy="-0.866025" r="0.0123711" fill="rgb( 0, 0, 255 )"/>
    <circle cx="-0.608761" cy="-0.793353" r="0.0123711" fill="rgb( 0, 0, 255 )"/>
    <circle cx="-0.707107" cy="-0.707107" r="0.0123711" fill="rgb( 0, 0, 255 )"/>
    <circle cx="-0.793353" cy="-0.608761" r="0.0123711" fill="rgb( 0, 0, 255 )"/>
    <circle cx="-0.866025" cy="-0.5" r="0.0123711" fill="rgb( 0, 0, 255 )"/>
    <circle cx="-0.92388" cy="-0.382683" r="0.0123711" fill="rgb( 0, 0, 255 )"/>
    <circle cx="-0.965926" cy="-0.258819" r="0.0123711" fill="rgb( 0, 0, 255 )"/>
    <circle cx="-0.991445" cy="-0.130526" r="0.0123711" fill="rgb( 0, 0, 255 )"/>
    <circle cx="-1" cy="0" r="0.0123711" fill="rgb( 0, 0, 255 )"/>
    <circle cx="-1" cy="6.12323e-17" r="0.0123711" fill="rgb( 0, 0, 255 )"/>
    <circle cx="-0.991445" cy="0.130526" r="0.0123711" fill="rgb( 0, 0, 255 )"/>
    <circle cx="-0.965926" cy="0.258819" r="0.0123711" fill="rgb( 0, 0, 255 )"/>
    <circle cx="-0.92388" cy="0.382683" r="0.0123711" fill="rgb( 0, 0, 255 )"/>
    <circle cx="-0.866025" cy="0.5" r="0.0123711" fill="rgb( 0, 0, 255 )"/>
    <circle cx="-0.793353" cy="0.608761" r="0.0123711" fill="rgb( 0, 0, 255 )"/>
    <circle cx="-0.707107" cy="0.707107" r="0.0123711" fill="rgb( 0, 0, 255 )"/>
    <circle cx="-0.608761" cy="0.793353" r="0.0123711" fill="rgb( 0, 0, 255 )"/>
    <circle cx="-0.5" cy="0.866025" r="0.0123711" fill="rgb( 0, 0, 255 )"/>
    <circle cx="-0.382683" cy="0.92388" r="0.0123711" fill="rgb( 0, 0, 255 )"/>
    <circle cx="-0.258819" cy="0.965926" r="0.0123711" fill="rgb( 0, 0, 255 )"/>
    <circle cx="-0.130526" cy="0.991445" r="0.0123711" fill="rgb( 0, 0, 255 )"/>
    <circle cx="0" cy="1" r="0.0123711" fill="rgb( 0, 0, 255 )"/>
  </g>
</svg>