<svg width="1000" height="666.667" xmlns="http://www.w3.org/2000/svg">
  <g transform="translate(234.722, 333.333) scale(212.222, -212.222)">
    <line x1="0" y1="1" x2="-1" y2="1" stroke="rgb( 255, 192, 192 )" stroke-width="0.0141361"/>
    <line x1="2" y1="0" x2="0.5" y2="1.5" stroke="rgb( 255, 192, 192 )" stroke-width="0.0141361"/>
    <line x1="0" y1="-1" x2="1" y2="-1" stroke="rgb( 255, 192, 192 )" stroke-width="0.0141361"/>
    <line x1="-1" y1="0" x2="-1" y2="-1" stroke="rgb( 255, 192, 192 )" stroke-width="0.0141361"/>
    <line x1="0" y1="1" x2="1" y2="1" stroke="rgb( 192, 192, 255 )" stroke-width="0.0141361"/>
    <line x1="2" y1="0" x2="3.5" y2="-1.5" stroke="rgb( 192, 192, 255 )" stroke-width="0.0141361"/>
    <line x1="0" y1="-1" x2="-1" y2="-1" stroke="rgb( 192, 192, 255 )" stroke-width="0.0141361"/>
    <line x1="-1" y1="0" x2="-1" y2="1" stroke="rgb( 192, 192, 255 )" stroke-width="0.0141361"/>
    <circle cx="0" cy="1" r="0.0565445" fill="rgb( 255, 128, 255 )"/>
    <circle cx="2" cy="0" r="0.0565445" fill="rgb( 255, 128, 255 )"/>
    <circle cx="0" cy="-1" r="0.0565445" fill="rgb( 255, 128, 255 )"/>
    <circle cx="-1" cy="0" r="0.0565445" fill="rgb( 255, 128, 255 )"/>
    <circle cx="0" cy="1" r="0.0282723" fill="rgb( 0, 0, 255 )"/>
    <circle cx="0.0925618" cy="1.00639" r="0.0282723" fill="rgb( 0, 0, 255 )"/>
    <circle cx="0.205743" cy="1.01675" r="0.0282723" fill="rgb( 0, 0, 255 )"/>
    <circle cx="0.341529" cy="1.01831" r="0.0282723" fill="rgb( 0, 0, 255 )"/>
    <circle cx="0.5" cy="1" r="0.0282723" fill="rgb( 0, 0, 255 )"/>
    <circle cx="0.679168" cy="0.953676" r="0.0282723" fill="rgb( 0, 0, 255 )"/>
    <circle cx="0.875" cy="0.875" r="0.0282723" fill="rgb( 0, 0, 255 )"/>
    <circle cx="1.08162" cy="0.763971" r="0.0282723" fill="rgb( 0, 0, 255 )"/>
    <circle cx="1.29167" cy="0.625" r="0.0282723" fill="rgb( 0, 0, 255 )"/>
    <circle cx="1.49686" cy="0.466529" r="0.0282723" fill="rgb( 0, 0, 255 )"/>
    <circle cx="1.68859" cy="0.30024" r="0.0282723" fill="rgb( 0, 0, 255 )"/>
    <circle cx="1.85867" cy="0.139907" r="0.0282723" fill="rgb( 0, 0, 255 )"/>
    <circle cx="2" cy="0" r="0.0282723" fill="rgb( 0, 0, 255 )"/>
    <circle cx="2" cy="0" r="0.0282723" fill="rgb( 0, 0, 255 )"/>
    <circle cx="2.10441" cy="-0.139907" r="0.0282723" fill="rgb( 0, 0, 255 )"/>
    <circle cx="2.1551" cy="-0.30024" r="0.0282723" fill="rgb( 0, 0, 255 )"/>
    <circle cx="2.13702" cy="-0.466529" r="0.0282723" fill="rgb( 0, 0, 255 )"/>
    <circle cx="2.04167" cy="-0.625" r="0.0282723" fill="rgb( 0, 0, 255 )"/>
    <circle cx="1.86838" cy="-0.763971" r="0.0282723" fill="rgb( 0, 0, 255 )"/>
    <circle cx="1.625" cy="-0.875" r="0.0282723" fill="rgb( 0, 0, 255 )"/>
    <circle cx="1.3277" cy="-0.953676" r="0.0282723" fill="rgb( 0, 0, 255 )"/>
    <circle cx="1" cy="-1" r="0.0282723" fill="rgb( 0, 0, 255 )"/>
    <circle cx="0.671034" cy="-1.01831" r="0.0282723" fill="rgb( 0, 0, 255 )"/>
    <circle cx="0.373211" cy="-1.01675" r="0.0282723" fill="rgb( 0, 0, 255 )"/>
    <circle cx="0.139414" cy="-1.00639" r="0.0282723" fill="rgb( 0, 0, 255 )"/>
    <circle cx="0" cy="-1" r="0.0282723" fill="rgb( 0, 0, 255 )"/>
    <circle cx="0" cy="-1" r="0.0282723" fill="rgb( 0, 0, 255 )"/>
    <circle cx="-0.0989507" cy="-0.99858" r="0.0282723" fill="rgb( 0, 0, 255 )"/>
    <circle cx="-0.222489" cy="-0.988835" r="0.0282723" fill="rgb( 0, 0, 255 )"/>
    <circle cx="-0.359835" cy="-0.963388" r="0.0282723" fill="rgb( 0, 0, 255 )"/>
    <circle cx="-0.5" cy="-0.916667" r="0.0282723" fill="rgb( 0, 0, 255 )"/>
    <circle cx="-0.632844" cy="-0.845587" r="0.0282723" fill="rgb( 0, 0, 255 )"/>
    <circle cx="-0.75" cy="-0.75" r="0.0282723" fill="rgb( 0, 0, 255 )"/>
    <circle cx="-0.845587" cy="-0.632844" r="0.0282723" fill="rgb( 0, 0, 255 )"/>
    <circle cx="-0.916667" cy="-0.5" r="0.0282723" fill="rgb( 0, 0, 255 )"/>
    <circle cx="-0.963388" cy="-0.359835" r="0.0282723" fill="rgb( 0, 0, 255 )"/>
    <circle cx="-0.988835" cy="-0.222489" r="0.0282723" fill="rgb( 0, 0, 255 )"/>
    <circle cx="-0.99858" cy="-0.0989507" r="0.0282723" fill="rgb( 0, 0, 255 )"/>
    <circle cx="-1" cy="0" r="0.0282723" fill="rgb( 0, 0, 255 )"/>
    <circle cx="-1" cy="0" r="0.0282723" fill="rgb( 0, 0, 255 )"/>
    <circle cx="-0.99858" cy="0.0989507" r="0.0282723" fill="rgb( 0, 0, 255 )"/>
    <circle cx="-0.988835" cy="0.222489" r="0.0282723" fill="rgb( 0, 0, 255 )"/>
    <circle cx="-0.963388" cy="0.359835" r="0.0282723" fill="rgb( 0, 0, 255 )"/>
    <circle cx="-0.916667" cy="0.5" r="0.0282723" fill="rgb( 0, 0, 255 )"/>
    <circle cx="-0.845587" cy="0.632844" r="0.0282723" fill="rgb( 0, 0, 255 )"/>
    <circle cx="-0.75" cy="0.75" r="0.0282723" fill="rgb( 0, 0, 255 )"/>
    <circle cx="-0.632844" cy="0.845587" r="0.0282723" fill="rgb( 0, 0, 255 )"/>
    <circle cx="-0.5" cy="0.916667" r="0.0282723" fill="rgb( 0, 0, 255 )"/>
    <circle cx="-0.359835" cy="0.963388" r="0.0282723" fill="rgb( 0, 0, 255 )"/>
    <circle cx="-0.222489" cy="0.988835" r="0.0282723" fill="rgb( 0, 0, 255 )"/>
    <circle cx="-0.0989507" cy="0.99858" r="0.0282723" fill="rgb( 0, 0, 255 )"/>
    <circle cx="0" cy="1" r="0.0282723" fill="rgb( 0, 0, 255 )"/>
  </g>
</svg>