<svg width="1000" height="666.667" xmlns="http://www.w3.org/2000/svg">
  <g transform="translate(340.833, 333.333) scale(318.333, -318.333)">
    <line x1="0" y1="1" x2="-1" y2="1" stroke="rgb( 255, 192, 192 )" stroke-width="0.00942408"/>
    <line x1="2" y1="0" x2="2" y2="1" stroke="rgb( 255, 192, 192 )" stroke-width="0.00942408"/>
    <line x1="0" y1="-1" x2="1" y2="-1" stroke="rgb( 255, 192, 192 )" stroke-width="0.00942408"/>
    <line x1="-1" y1="0" x2="-1" y2="-1" stroke="rgb( 255, 192, 192 )" stroke-width="0.00942408"/>
    <line x1="0" y1="1" x2="1" y2="1" stroke="rgb( 192, 192, 255 )" stroke-width="0.00942408"/>
    <line x1="2" y1="0" x2="2" y2="-1" stroke="rgb( 192, 192, 255 )" stroke-width="0.00942408"/>
    <line x1="0" y1="-1" x2="-1" y2="-1" stroke="rgb( 192, 192, 255 )" stroke-width="0.00942408"/>
    <line x1="-1" y1="0" x2="-1" y2="1" stroke="rgb( 192, 192, 255 )" stroke-width="0.00942408"/>
    <circle cx="0" cy="1" r="0.0376963" fill="rgb( 255, 128, 255 )"/>
    <circle cx="2" cy="0" r="0.0376963" fill="rgb( 255, 128, 255 )"/>
    <circle cx="0" cy="-1" r="0.0376963" fill="rgb( 255, 128, 255 )"/>
    <circle cx="-1" cy="0" r="0.0376963" fill="rgb( 255, 128, 255 )"/>
    <circle cx="0" cy="1" r="0.0188482" fill="rgb( 0, 0, 255 )"/>
    <circle cx="0.140125" cy="0.991445" r="0.0188482" fill="rgb( 0, 0, 255 )"/>
    <circle cx="0.300551" cy="0.965926" r="0.0188482" fill="rgb( 0, 0, 255 )"/>
    <circle cx="0.48214" cy="0.92388" r="0.0188482" fill="rgb( 0, 0, 255 )"/>
    <circle cx="0.683013" cy="0.866025" r="0.0188482" fill="rgb( 0, 0, 255 )"/>
    <circle cx="0.898504" cy="0.793353" r="0.0188482" fill="rgb( 0, 0, 255 )"/>
    <circle cx="1.12132" cy="0.707107" r="0.0188482" fill="rgb( 0, 0, 255 )"/>
    <circle cx="1.34191" cy="0.608761" r="0.0188482" fill="rgb( 0, 0, 255 )"/>
    <circle cx="1.54904" cy="0.5" r="0.0188482" fill="rgb( 0, 0, 255 )"/>
    <circle cx="1.73044" cy="0.382683" r="0.0188482" fill="rgb( 0, 0, 255 )"/>
    <circle cx="1.87368" cy="0.258819" r="0.0188482" fill="rgb( 0, 0, 255 )"/>
    <circle cx="1.96697" cy="0.130526" r="0.0188482" fill="rgb( 0, 0, 255 )"/>
    <circle cx="2" cy="0" r="0.0188482" fill="rgb( 0, 0, 255 )"/>
    <circle cx="2" cy="-6.12323e-17" r="0.0188482" fill="rgb( 0, 0, 255 )"/>
    <circle cx="1.98185" cy="-0.130526" r="0.0188482" fill="rgb( 0, 0, 255 )"/>
    <circle cx="1.92419" cy="-0.258819" r="0.0188482" fill="rgb( 0, 0, 255 )"/>
    <circle cx="1.82442" cy="-0.382683" r="0.0188482" fill="rgb( 0, 0, 255 )"/>
    <circle cx="1.68301" cy="-0.5" r="0.0188482" fill="rgb( 0, 0, 255 )"/>
    <circle cx="1.50361" cy="-0.608761" r="0.0188482" fill="rgb( 0, 0, 255 )"/>
    <circle cx="1.29289" cy="-0.707107" r="0.0188482" fill="rgb( 0, 0, 255 )"/>
    <circle cx="1.0602" cy="-0.793353" r="0.0188482" fill="rgb( 0, 0, 255 )"/>
    <circle cx="0.816987" cy="-0.866025" r="0.0188482" fill="rgb( 0, 0, 255 )"/>
    <circle cx="0.57612" cy="-0.92388" r="0.0188482" fill="rgb( 0, 0, 255 )"/>
    <circle cx="0.351061" cy="-0.965926" r="0.0188482" fill="rgb( 0, 0, 255 )"/>
    <circle cx="0.155002" cy="-0.991445" r="0.0188482" fill="rgb( 0, 0, 255 )"/>
    <circle cx="0" cy="-1" r="0.0188482" fill="rgb( 0, 0, 255 )"/>
    <circle cx="-6.12323e-17" cy="-1" r="0.0188482" fill="rgb( 0, 0, 255 )"/>
    <circle cx="-0.130526" cy="-0.991445" r="0.0188482" fill="rgb( 0, 0, 255 )"/>
    <circle cx="-0.258819" cy="-0.965926" r="0.0188482" fill="rgb( 0, 0, 255 )"/>
    <circle cx="-0.382683" cy="-0.92388" r="0.0188482" fill="rgb( 0, 0, 255 )"/>
    <circle cx="-0.5" cy="-0.866025" r="0.0188482" fill="rgb( 0, 0, 255 )"/>
    <circle cx="-0.608761" cy="-0.793353" r="0.0188482" fill="rgb( 0, 0, 255 )"/>
    <circle cx="-0.707107" cy="-0.707107" r="0.0188482" fill="rgb( 0, 0, 255 )"/>
    <circle cx="-0.793353" cy="-0.608761" r="0.0188482" fill="rgb( 0, 0, 255 )"/>
    <circle cx="-0.866025" cy="-0.5" r="0.0188482" fill="rgb( 0, 0, 255 )"/>
    <circle cx="-0.92388" cy="-0.382683" r="0.0188482" fill="rgb( 0, 0, 255 )"/>
    <circle cx="-0.965926" cy="-0.258819" r="0.0188482" fill="rgb( 0, 0, 255 )"/>
    <circle cx="-0.991445" cy="-0.130526" r="0.0188482" fill="rgb( 0, 0, 255 )"/>
    <circle cx="-1" cy="0" r="0.0188482" fill="rgb( 0, 0, 255 )"/>
    <circle cx="-1" cy="6.12323e-17" r="0.0188482" fill="rgb( 0, 0, 255 )"/>
    <circle cx="-0.991445" cy="0.130526" r="0.0188482" fill="rgb( 0, 0, 255 )"/>
    <circle cx="-0.965926" cy="0.258819" r="0.0188482" fill="rgb( 0, 0, 255 )"/>
    <circle cx="-0.92388" cy="0.382683" r="0.0188482" fill="rgb( 0, 0, 255 )"/>
    <circle cx="-0.866025" cy="0.5" r="0.0188482" fill="rgb( 0, 0, 255 )"/>
    <circle cx="-0.793353" cy="0.608761" r="0.0188482" fill="rgb( 0, 0, 255 )"/>
    <circle cx="-0.707107" cy="0.707107" r="0.0188482" fill="rgb( 0, 0, 255 )"/>
    <circle cx="-0.608761" cy="0.793353" r="0.0188482" fill="rgb( 0, 0, 255 )"/>
    <circle cx="-0.5" cy="0.866025" r="0.0188482" fill="rgb( 0, 0, 255 )"/>
    <circle cx="-0.382683" cy="0.92388" r="0.0188482" fill="rgb( 0, 0, 255 )"/>
    <circle cx="-0.258819" cy="0.965926" r="0.0188482" fill="rgb( 0, 0, 255 )"/>
    <circle cx="-0.130526" cy="0.991445" r="0.0188482" fill="rgb( 0, 0, 255 )"/>
    <circle cx="0" cy="1" r="0.0188482" fill="rgb( 0, 0, 255 )"/>
  </g>
</svg>