<svg width="1000" height="500" xmlns="http://www.w3.org/2000/svg">
  <g transform="translate(265, 250) scale(235, -235)">
    <line x1="0" y1="1" x2="-1" y2="1" stroke="rgb( 255, 192, 192 )" stroke-width="0.012766"/>
    <line x1="2" y1="1" x2="1" y2="1" stroke="rgb( 255, 192, 192 )" stroke-width="0.012766"/>
    <line x1="3" y1="0" x2="3" y2="1" stroke="rgb( 255, 192, 192 )" stroke-width="0.012766"/>
    <line x1="2" y1="-1" x2="3" y2="-1" stroke="rgb( 255, 192, 192 )" stroke-width="0.012766"/>
    <line x1="0" y1="-1" x2="1" y2="-1" stroke="rgb( 255, 192, 192 )" stroke-width="0.012766"/>
    <line x1="-1" y1="0" x2="-1" y2="-1" stroke="rgb( 255, 192, 192 )" stroke-width="0.012766"/>
    <line x1="0" y1="1" x2="1" y2="1" stroke="rgb( 192, 192, 255 )" stroke-width="0.012766"/>
    <line x1="2" y1="1" x2="3" y2="1" stroke="rgb( 192, 192, 255 )" stroke-width="0.012766"/>
    <line x1="3" y1="0" x2="3" y2="-1" stroke="rgb( 192, 192, 255 )" stroke-width="0.012766"/>
    <line x1="2" y1="-1" x2="1" y2="-1" stroke="rgb( 192, 192, 255 )" stroke-width="0.012766"/>
    <line x1="0" y1="-1" x2="-1" y2="-1" stroke="rgb( 192, 192, 255 )" stroke-width="0.012766"/>
    <line x1="-1" y1="0" x2="-1" y2="1" stroke="rgb( 192, 192, 255 )" stroke-width="0.012766"/>
    <circle cx="0" cy="1" r="0.0510638" fill="rgb( 255, 128, 255 )"/>
    <circle cx="2" cy="1" r="0.0510638" fill="rgb( 255, 128, 255 )"/>
    <circle cx="3" cy="0" r="0.0510638" fill="rgb( 255, 128, 255 )"/>
    <circle cx="2" cy="-1" r="0.0510638" fill="rgb( 255, 128, 255 )"/>
    <circle cx="0" cy="-1" r="0.0510638" fill="rgb( 255, 128, 255 )"/>
    <circle cx="-1" cy="0" r="0.0510638" fill="rgb( 255, 128, 255 )"/>
    <circle cx="0" cy="1" r="0.0255319" fill="rgb( 0, 0, 255 )"/>
    <circle cx="0.139081" cy="1" r="0.0255319" fill="rgb( 0, 0, 255 )"/>
    <circle cx="0.292893" cy="1" r="0.0255319" fill="rgb( 0, 0, 255 )"/>
    <circle cx="0.458804" cy="1" r="0.0255319" fill="rgb( 0, 0, 255 )"/>
    <circle cx="0.633975" cy="1" r="0.0255319" fill="rgb( 0, 0, 255 )"/>
    <circle cx="0.815408" cy="1" r="0.0255319" fill="rgb( 0, 0, 255 )"/>
    <circle cx="1" cy="1" r="0.0255319" fill="rgb( 0, 0, 255 )"/>
    <circle cx="1.18459" cy="1" r="0.0255319" fill="rgb( 0, 0, 255 )"/>
    <circle cx="1.36603" cy="1" r="0.0255319" fill="rgb( 0, 0, 255 )"/>
    <circle cx="1.5412" cy="1" r="0.0255319" fill="rgb( 0, 0, 255 )"/>
    <circle cx="1.70711" cy="1" r="0.0255319" fill="rgb( 0, 0, 255 )"/>
    <circle cx="1.86092" cy="1" r="0.0255319" fill="rgb( 0, 0, 255 )"/>
    <circle cx="2" cy="1" r="0.0255319" fill="rgb( 0, 0, 255 )"/>
    <circle cx="2" cy="1" r="0.0255319" fill="rgb( 0, 0, 255 )"/>
    <circle cx="2.13053" cy="0.991445" r="0.0255319" fill="rgb( 0, 0, 255 )"/>
    <circle cx="2.25882" cy="0.965926" r="0.0255319" fill="rgb( 0, 0, 255 )"/>
    <circle cx="2.38268" cy="0.92388" r="0.0255319" fill="rgb( 0, 0, 255 )"/>
    <circle cx="2.5" cy="0.866025" r="0.0255319" fill="rgb( 0, 0, 255 )"/>
    <circle cx="2.60876" cy="0.793353" r="0.0255319" fill="rgb( 0, 0, 255 )"/>
    <circle cx="2.70711" cy="0.707107" r="0.0255319" fill="rgb( 0, 0, 255 )"/>
    <circle cx="2.79335" cy="0.608761" r="0.0255319" fill="rgb( 0, 0, 255 )"/>
    <circle cx="2.86603" cy="0.5" r="0.0255319" fill="rgb( 0, 0, 255 )"/>
    <circle cx="2.92388" cy="0.382683" r="0.0255319" fill="rgb( 0, 0, 255 )"/>
    <circle cx="2.96593" cy="0.258819" r="0.0255319" fill="rgb( 0, 0, 255 )"/>
    <circle cx="2.99144" cy="0.130526" r="0.0255319" fill="rgb( 0, 0, 255 )"/>
    <circle cx="3" cy="0" r="0.0255319" fill="rgb( 0, 0, 255 )"/>
    <circle cx="3" cy="-6.12323e-17" r="0.0255319" fill="rgb( 0, 0, 255 )"/>
    <circle cx="2.99144" cy="-0.130526" r="0.0255319" fill="rgb( 0, 0, 255 )"/>
    <circle cx="2.96593" cy="-0.258819" r="0.0255319" fill="rgb( 0, 0, 255 )"/>
    <circle cx="2.92388" cy="-0.382683" r="0.0255319" fill="rgb( 0, 0, 255 )"/>
    <circle cx="2.86603" cy="-0.5" r="0.0255319" fill="rgb( 0, 0, 255 )"/>
    <circle cx="2.79335" cy="-0.608761" r="0.0255319" fill="rgb( 0, 0, 255 )"/>
    <circle cx="2.70711" cy="-0.707107" r="0.0255319" fill="rgb( 0, 0, 255 )"/>
    <circle cx="2.60876" cy="-0.793353" r="0.0255319" fill="rgb( 0, 0, 255 )"/>
    <circle cx="2.5" cy="-0.866025" r="0.0255319" fill="rgb( 0, 0, 255 )"/>
    <circle cx="2.38268" cy="-0.92388" r="0.0255319" fill="rgb( 0, 0, 255 )"/>
    <circle cx="2.25882" cy="-0.965926" r="0.0255319" fill="rgb( 0, 0, 255 )"/>
    <circle cx="2.13053" cy="-0.991445" r="0.0255319" fill="rgb( 0, 0, 255 )"/>
    <circle cx="2" cy="-1" r="0.0255319" fill="rgb( 0, 0, 255 )"/>
    <circle cx="2" cy="-1" r="0.0255319" fill="rgb( 0, 0, 255 )"/>
    <circle cx="1.86092" cy="-1" r="0.0255319" fill="rgb( 0, 0, 255 )"/>
    <circle cx="1.70711" cy="-1" r="0.0255319" fill="rgb( 0, 0, 255 )"/>
    <circle cx="1.5412" cy="-1" r="0.0255319" fill="rgb( 0, 0, 255 )"/>
    <circle cx="1.36603" cy="-1" r="0.0255319" fill="rgb( 0, 0, 255 )"/>
    <circle cx="1.18459" cy="-1" r="0.0255319" fill="rgb( 0, 0, 255 )"/>
    <circle cx="1" cy="-1" r="0.0255319" fill="rgb( 0, 0, 255 )"/>
    <circle cx="0.815408" cy="-1" r="0.0255319" fill="rgb( 0, 0, 255 )"/>
    <circle cx="0.633975" cy="-1" r="0.0255319" fill="rgb( 0, 0, 255 )"/>
    <circle cx="0.458804" cy="-1" r="0.0255319" fill="rgb( 0, 0, 255 )"/>
    <circle cx="0.292893" cy="-1" r="0.0255319" fill="rgb( 0, 0, 255 )"/>
    <circle cx="0.139081" cy="-1" r="0.0255319" fill="rgb( 0, 0, 255 )"/>
    <circle cx="0" cy="-1" r="0.0255319" fill="rgb( 0, 0, 255 )"/>
    <circle cx="-6.12323e-17" cy="-1" r="0.0255319" fill="rgb( 0, 0, 255 )"/>
    <circle cx="-0.130526" cy="-0.991445" r="0.0255319" fill="rgb( 0, 0, 255 )"/>
    <circle cx="-0.258819" cy="-0.965926" r="0.0255319" fill="rgb( 0, 0, 255 )"/>
    <circle cx="-0.382683" cy="-0.92388" r="0.0255319" fill="rgb( 0, 0, 255 )"/>
    <circle cx="-0.5" cy="-0.866025" r="0.0255319" fill="rgb( 0, 0, 255 )"/>
    <circle cx="-0.608761" cy="-0.793353" r="0.0255319" fill="rgb( 0, 0, 255 )"/>
    <circle cx="-0.707107" cy="-0.707107" r="0.0255319" fill="rgb( 0, 0, 255 )"/>
    <circle cx="-0.793353" cy="-0.608761" r="0.0255319" fill="rgb( 0, 0, 255 )"/>
    <circle cx="-0.866025" cy="-0.5" r="0.0255319" fill="rgb( 0, 0, 255 )"/>
    <circle cx="-0.92388" cy="-0.382683" r="0.0255319" fill="rgb( 0, 0, 255 )"/>
    <circle cx="-0.965926" cy="-0.258819" r="0.0255319" fill="rgb( 0, 0, 255 )"/>
    <circle cx="-0.991445" cy="-0.130526" r="0.0255319" fill="rgb( 0, 0, 255 )"/>
    <circle cx="-1" cy="0" r="0.0255319" fill="rgb( 0, 0, 255 )"/>
    <circle cx="-1" cy="6.12323e-17" r="0.0255319" fill="rgb( 0, 0, 255 )"/>
    <circle cx="-0.991445" cy="0.130526" r="0.0255319" fill="rgb( 0, 0, 255 )"/>
    <circle cx="-0.965926" cy="0.258819" r="0.0255319" fill="rgb( 0, 0, 255 )"/>
    <circle cx="-0.92388" cy="0.382683" r="0.0255319" fill="rgb( 0, 0, 255 )"/>
    <circle cx="-0.866025" cy="0.5" r="0.0255319" fill="rgb( 0, 0, 255 )"/>
    <circle cx="-0.793353" cy="0.608761" r="0.0255319" fill="rgb( 0, 0, 255 )"/>
    <circle cx="-0.707107" cy="0.707107" r="0.0255319" fill="rgb( 0, 0, 255 )"/>
    <circle cx="-0.608761" cy="0.793353" r="0.0255319" fill="rgb( 0, 0, 255 )"/>
    <circle cx="-0.5" cy="0.866025" r="0.0255319" fill="rgb( 0, 0, 255 )"/>
    <circle cx="-0.382683" cy="0.92388" r="0.0255319" fill="rgb( 0, 0, 255 )"/>
    <circle cx="-0.258819" cy="0.965926" r="0.0255319" fill="rgb( 0, 0, 255 )"/>
    <circle cx="-0.130526" cy="0.991445" r="0.0255319" fill="rgb( 0, 0, 255 )"/>
    <circle cx="0" cy="1" r="0.0255319" fill="rgb( 0, 0, 255 )"/>
  </g>
</svg>