<svg width="1000" height="666.667" xmlns="http://www.w3.org/2000/svg">
  <g transform="translate(234.722, 333.333) scale(212.222, -212.222)">
    <line x1="0" y1="1" x2="-1" y2="1" stroke="rgb( 255, 192, 192 )" stroke-width="0.0141361"/>
    <line x1="2" y1="0" x2="0.5" y2="1.5" stroke="rgb( 255, 192, 192 )" stroke-width="0.0141361"/>
    <line x1="0" y1="-1" x2="1" y2="-1" stroke="rgb( 255, 192, 192 )" stroke-width="0.0141361"/>
    <line x1="-1" y1="0" x2="-1" y2="-1" stroke="rgb( 255, 192, 192 )" stroke-width="0.0141361"/>
    <line x1="0" y1="1" x2="1" y2="1" stroke="rgb( 192, 192, 255 )" stroke-width="0.0141361"/>
    <line x1="2" y1="0" x2="3.5" y2="-1.5" stroke="rgb( 192, 192, 255 )" stroke-width="0.0141361"/>
    <line x1="0" y1="-1" x2="-1" y2="-1" stroke="rgb( 192, 192, 255 )" stroke-width="0.0141361"/>
    <line x1="-1" y1="0" x2="-1" y2="1" stroke="rgb( 192, 192, 255 )" stroke-width="0.0141361"/>
    <circle cx="0" cy="1" r="0.0565445" fill="rgb( 255, 128, 255 )"/>
    <circle cx="2" cy="0" r="0.0565445" fill="rgb( 255, 128, 255 )"/>
    <circle cx="0" cy="-1" r="0.0565445" fill="rgb( 255, 128, 255 )"/>
    <circle cx="-1" cy="0" r="0.0565445" fill="rgb( 255, 128, 255 )"/>
    <circle cx="0" cy="1" r="0.0282723" fill="rgb( 0, 0, 255 )"/>
    <circle cx="0.13856" cy="0.991967" r="0.0282723" fill="rgb( 0, 0, 255 )"/>
    <circle cx="0.289064" cy="0.969755" r="0.0282723" fill="rgb( 0, 0, 255 )"/>
    <circle cx="0.447136" cy="0.935547" r="0.0282723" fill="rgb( 0, 0, 255 )"/>
    <circle cx="0.609456" cy="0.890544" r="0.0282723" fill="rgb( 0, 0, 255 )"/>
    <circle cx="0.77386" cy="0.834901" r="0.0282723" fill="rgb( 0, 0, 255 )"/>
    <circle cx="0.93934" cy="0.767767" r="0.0282723" fill="rgb( 0, 0, 255 )"/>
    <circle cx="1.10593" cy="0.687423" r="0.0282723" fill="rgb( 0, 0, 255 )"/>
    <circle cx="1.27452" cy="0.591506" r="0.0282723" fill="rgb( 0, 0, 255 )"/>
    <circle cx="1.44657" cy="0.477307" r="0.0282723" fill="rgb( 0, 0, 255 )"/>
    <circle cx="1.62382" cy="0.342107" r="0.0282723" fill="rgb( 0, 0, 255 )"/>
    <circle cx="1.80789" cy="0.183552" r="0.0282723" fill="rgb( 0, 0, 255 )"/>
    <circle cx="2" cy="0" r="0.0282723" fill="rgb( 0, 0, 255 )"/>
    <circle cx="2" cy="-1.11022e-16" r="0.0282723" fill="rgb( 0, 0, 255 )"/>
    <circle cx="2.16324" cy="-0.19099" r="0.0282723" fill="rgb( 0, 0, 255 )"/>
    <circle cx="2.24982" cy="-0.367362" r="0.0282723" fill="rgb( 0, 0, 255 )"/>
    <circle cx="2.24926" cy="-0.524297" r="0.0282723" fill="rgb( 0, 0, 255 )"/>
    <circle cx="2.15849" cy="-0.658494" r="0.0282723" fill="rgb( 0, 0, 255 )"/>
    <circle cx="1.98214" cy="-0.768271" r="0.0282723" fill="rgb( 0, 0, 255 )"/>
    <circle cx="1.73223" cy="-0.853553" r="0.0282723" fill="rgb( 0, 0, 255 )"/>
    <circle cx="1.42739" cy="-0.915749" r="0.0282723" fill="rgb( 0, 0, 255 )"/>
    <circle cx="1.09151" cy="-0.957532" r="0.0282723" fill="rgb( 0, 0, 255 )"/>
    <circle cx="0.752095" cy="-0.982538" r="0.0282723" fill="rgb( 0, 0, 255 )"/>
    <circle cx="0.438314" cy="-0.99501" r="0.0282723" fill="rgb( 0, 0, 255 )"/>
    <circle cx="0.178882" cy="-0.999405" r="0.0282723" fill="rgb( 0, 0, 255 )"/>
    <circle cx="0" cy="-1" r="0.0282723" fill="rgb( 0, 0, 255 )"/>
    <circle cx="-6.12323e-17" cy="-1" r="0.0282723" fill="rgb( 0, 0, 255 )"/>
    <circle cx="-0.130526" cy="-0.991445" r="0.0282723" fill="rgb( 0, 0, 255 )"/>
    <circle cx="-0.258819" cy="-0.965926" r="0.0282723" fill="rgb( 0, 0, 255 )"/>
    <circle cx="-0.382683" cy="-0.92388" r="0.0282723" fill="rgb( 0, 0, 255 )"/>
    <circle cx="-0.5" cy="-0.866025" r="0.0282723" fill="rgb( 0, 0, 255 )"/>
    <circle cx="-0.608761" cy="-0.793353" r="0.0282723" fill="rgb( 0, 0, 255 )"/>
    <circle cx="-0.707107" cy="-0.707107" r="0.0282723" fill="rgb( 0, 0, 255 )"/>
    <circle cx="-0.793353" cy="-0.608761" r="0.0282723" fill="rgb( 0, 0, 255 )"/>
    <circle cx="-0.866025" cy="-0.5" r="0.0282723" fill="rgb( 0, 0, 255 )"/>
    <circle cx="-0.92388" cy="-0.382683" r="0.0282723" fill="rgb( 0, 0, 255 )"/>
    <circle cx="-0.965926" cy="-0.258819" r="0.0282723" fill="rgb( 0, 0, 255 )"/>
    <circle cx="-0.991445" cy="-0.130526" r="0.0282723" fill="rgb( 0, 0, 255 )"/>
    <circle cx="-1" cy="0" r="0.0282723" fill="rgb( 0, 0, 255 )"/>
    <circle cx="-1" cy="6.12323e-17" r="0.0282723" fill="rgb( 0, 0, 255 )"/>
    <circle cx="-0.991445" cy="0.130526" r="0.0282723" fill="rgb( 0, 0, 255 )"/>
    <circle cx="-0.965926" cy="0.258819" r="0.0282723" fill="rgb( 0, 0, 255 )"/>
    <circle cx="-0.92388" cy="0.382683" r="0.0282723" fill="rgb( 0, 0, 255 )"/>
    <circle cx="-0.866025" cy="0.5" r="0.0282723" fill="rgb( 0, 0, 255 )"/>
    <circle cx="-0.793353" cy="0.608761" r="0.0282723" fill="rgb( 0, 0, 255 )"/>
    <circle cx="-0.707107" cy="0.707107" r="0.0282723" fill="rgb( 0, 0, 255 )"/>
    <circle cx="-0.608761" cy="0.793353" r="0.0282723" fill="rgb( 0, 0, 255 )"/>
    <circle cx="-0.5" cy="0.866025" r="0.0282723" fill="rgb( 0, 0, 255 )"/>
    <circle cx="-0.382683" cy="0.92388" r="0.0282723" fill="rgb( 0, 0, 255 )"/>
    <circle cx="-0.258819" cy="0.965926" r="0.0282723" fill="rgb( 0, 0, 255 )"/>
    <circle cx="-0.130526" cy="0.991445" r="0.0282723" fill="rgb( 0, 0, 255 )"/>
    <circle cx="0" cy="1" r="0.0282723" fill="rgb( 0, 0, 255 )"/>
  </g>
</svg>