<svg width="1000" height="555.556" xmlns="http://www.w3.org/2000/svg">
  <g transform="translate(237.222, 225.222) scale(210.222, -210.222)">
    <line x1="0" y1="1" x2="-1" y2="1" stroke="rgb( 255, 192, 192 )" stroke-width="0.0142706"/>
    <line x1="2" y1="0" x2="1" y2="1" stroke="rgb( 255, 192, 192 )" stroke-width="0.0142706"/>
    <line x1="0" y1="-1" x2="3.5" y2="-1.5" stroke="rgb( 255, 192, 192 )" stroke-width="0.0142706"/>
    <line x1="-1" y1="0" x2="-1" y2="-1" stroke="rgb( 255, 192, 192 )" stroke-width="0.0142706"/>
    <line x1="0" y1="1" x2="1" y2="1" stroke="rgb( 192, 192, 255 )" stroke-width="0.0142706"/>
    <line x1="2" y1="0" x2="3.5" y2="-1.5" stroke="rgb( 192, 192, 255 )" stroke-width="0.0142706"/>
    <line x1="0" y1="-1" x2="-1" y2="-1" stroke="rgb( 192, 192, 255 )" stroke-width="0.0142706"/>
    <line x1="-1" y1="0" x2="-1" y2="1" stroke="rgb( 192, 192, 255 )" stroke-width="0.0142706"/>
    <circle cx="0" cy="1" r="0.0570825" fill="rgb( 255, 128, 255 )"/>
    <circle cx="2" cy="0" r="0.0570825" fill="rgb( 255, 128, 255 )"/>
    <circle cx="0" cy="-1" r="0.0570825" fill="rgb( 255, 128, 255 )"/>
    <circle cx="-1" cy="0" r="0.0570825" fill="rgb( 255, 128, 255 )"/>
    <circle cx="0" cy="1" r="0.0285412" fill="rgb( 0, 0, 255 )"/>
    <circle cx="0.10037" cy="0.99858" r="0.0285412" fill="rgb( 0, 0, 255 )"/>
    <circle cx="0.233654" cy="0.988835" r="0.0285412" fill="rgb( 0, 0, 255 )"/>
    <circle cx="0.396447" cy="0.963388" r="0.0285412" fill="rgb( 0, 0, 255 )"/>
    <circle cx="0.583333" cy="0.916667" r="0.0285412" fill="rgb( 0, 0, 255 )"/>
    <circle cx="0.787257" cy="0.845587" r="0.0285412" fill="rgb( 0, 0, 255 )"/>
    <circle cx="1" cy="0.75" r="0.0285412" fill="rgb( 0, 0, 255 )"/>
    <circle cx="1.21274" cy="0.632844" r="0.0285412" fill="rgb( 0, 0, 255 )"/>
    <circle cx="1.41667" cy="0.5" r="0.0285412" fill="rgb( 0, 0, 255 )"/>
    <circle cx="1.60355" cy="0.359835" r="0.0285412" fill="rgb( 0, 0, 255 )"/>
    <circle cx="1.76635" cy="0.222489" r="0.0285412" fill="rgb( 0, 0, 255 )"/>
    <circle cx="1.89963" cy="0.0989507" r="0.0285412" fill="rgb( 0, 0, 255 )"/>
    <circle cx="2" cy="0" r="0.0285412" fill="rgb( 0, 0, 255 )"/>
    <circle cx="2" cy="0" r="0.0285412" fill="rgb( 0, 0, 255 )"/>
    <circle cx="2.14346" cy="-0.147716" r="0.0285412" fill="rgb( 0, 0, 255 )"/>
    <circle cx="2.29466" cy="-0.328152" r="0.0285412" fill="rgb( 0, 0, 255 )"/>
    <circle cx="2.41161" cy="-0.521447" r="0.0285412" fill="rgb( 0, 0, 255 )"/>
    <circle cx="2.45833" cy="-0.708333" r="0.0285412" fill="rgb( 0, 0, 255 )"/>
    <circle cx="2.40882" cy="-0.87206" r="0.0285412" fill="rgb( 0, 0, 255 )"/>
    <circle cx="2.25" cy="-1" r="0.0285412" fill="rgb( 0, 0, 255 )"/>
    <circle cx="1.98334" cy="-1.0848" r="0.0285412" fill="rgb( 0, 0, 255 )"/>
    <circle cx="1.625" cy="-1.125" r="0.0285412" fill="rgb( 0, 0, 255 )"/>
    <circle cx="1.2045" cy="-1.125" r="0.0285412" fill="rgb( 0, 0, 255 )"/>
    <circle cx="0.761966" cy="-1.0945" r="0.0285412" fill="rgb( 0, 0, 255 )"/>
    <circle cx="0.344198" cy="-1.04735" r="0.0285412" fill="rgb( 0, 0, 255 )"/>
    <circle cx="0" cy="-1" r="0.0285412" fill="rgb( 0, 0, 255 )"/>
    <circle cx="0" cy="-1" r="0.0285412" fill="rgb( 0, 0, 255 )"/>
    <circle cx="-0.0989507" cy="-0.99858" r="0.0285412" fill="rgb( 0, 0, 255 )"/>
    <circle cx="-0.222489" cy="-0.988835" r="0.0285412" fill="rgb( 0, 0, 255 )"/>
    <circle cx="-0.359835" cy="-0.963388" r="0.0285412" fill="rgb( 0, 0, 255 )"/>
    <circle cx="-0.5" cy="-0.916667" r="0.0285412" fill="rgb( 0, 0, 255 )"/>
    <circle cx="-0.632844" cy="-0.845587" r="0.0285412" fill="rgb( 0, 0, 255 )"/>
    <circle cx="-0.75" cy="-0.75" r="0.0285412" fill="rgb( 0, 0, 255 )"/>
    <circle cx="-0.845587" cy="-0.632844" r="0.0285412" fill="rgb( 0, 0, 255 )"/>
    <circle cx="-0.916667" cy="-0.5" r="0.0285412" fill="rgb( 0, 0, 255 )"/>
    <circle cx="-0.963388" cy="-0.359835" r="0.0285412" fill="rgb( 0, 0, 255 )"/>
    <circle cx="-0.988835" cy="-0.222489" r="0.0285412" fill="rgb( 0, 0, 255 )"/>
    <circle cx="-0.99858" cy="-0.0989507" r="0.0285412" fill="rgb( 0, 0, 255 )"/>
    <circle cx="-1" cy="0" r="0.0285412" fill="rgb( 0, 0, 255 )"/>
    <circle cx="-1" cy="0" r="0.0285412" fill="rgb( 0, 0, 255 )"/>
    <circle cx="-0.99858" cy="0.0989507" r="0.0285412" fill="rgb( 0, 0, 255 )"/>
    <circle cx="-0.988835" cy="0.222489" r="0.0285412" fill="rgb( 0, 0, 255 )"/>
    <circle cx="-0.963388" cy="0.359835" r="0.0285412" fill="rgb( 0, 0, 255 )"/>
    <circle cx="-0.916667" cy="0.5" r="0.0285412" fill="rgb( 0, 0, 255 )"/>
    <circle cx="-0.845587" cy="0.632844" r="0.0285412" fill="rgb( 0, 0, 255 )"/>
    <circle cx="-0.75" cy="0.75" r="0.0285412" fill="rgb( 0, 0, 255 )"/>
    <circle cx="-0.632844" cy="0.845587" r="0.0285412" fill="rgb( 0, 0, 255 )"/>
    <circle cx="-0.5" cy="0.916667" r="0.0285412" fill="rgb( 0, 0, 255 )"/>
    <circle cx="-0.359835" cy="0.963388" r="0.0285412" fill="rgb( 0, 0, 255 )"/>
    <circle cx="-0.222489" cy="0.988835" r="0.0285412" fill="rgb( 0, 0, 255 )"/>
    <circle cx="-0.0989507" cy="0.99858" r="0.0285412" fill="rgb( 0, 0, 255 )"/>
    <circle cx="0" cy="1" r="0.0285412" fill="rgb( 0, 0, 255 )"/>
  </g>
</svg>