<svg width="1000" height="1000" xmlns="http://www.w3.org/2000/svg">
  <g transform="translate(500, 500) scale(485, -485)">
    <line x1="0" y1="1" x2="-1" y2="1" stroke="rgb( 255, 192, 192 )" stroke-width="0.00618557"/>
    <line x1="1" y1="0" x2="1" y2="1" stroke="rgb( 255, 192, 192 )" stroke-width="0.00618557"/>
    <line x1="0" y1="-1" x2="1" y2="-1" stroke="rgb( 255, 192, 192 )" stroke-width="0.00618557"/>
    <line x1="-1" y1="0" x2="-1" y2="-1" stroke="rgb( 255, 192, 192 )" stroke-width="0.00618557"/>
    <line x1="0" y1="1" x2="1" y2="1" stroke="rgb( 192, 192, 255 )" stroke-width="0.00618557"/>
    <line x1="1" y1="0" x2="1" y2="-1" stroke="rgb( 192, 192, 255 )" stroke-width="0.00618557"/>
    <line x1="0" y1="-1" x2="-1" y2="-1" stroke="rgb( 192, 192, 255 )" stroke-width="0.00618557"/>
    <line x1="-1" y1="0" x2="-1" y2="1" stroke="rgb( 192, 192, 255 )" stroke-width="0.00618557"/>
    <circle cx="0" cy="1" r="0.0247423" fill="rgb( 255, 128, 255 )"/>
    <circle cx="1" cy="0" r="0.0247423" fill="rgb( 255, 128, 255 )"/>
    <circle cx="0" cy="-1" r="0.0247423" fill="rgb( 255, 128, 255 )"/>
    <circle cx="-1" cy="0" r="0.0247423" fill="rgb( 255, 128, 255 )"/>
    <circle cx="0" cy="1" r="0.0123711" fill="rgb( 0, 0, 255 )"/>
    <circle cx="0.0989507" cy="0.99858" r="0.0123711" fill="rgb( 0, 0, 255 )"/>
    <circle cx="0.222489" cy="0.988835" r="0.0123711" fill="rgb( 0, 0, 255 )"/>
    <circle cx="0.359835" cy="0.963388" r="0.0123711" fill="rgb( 0, 0, 255 )"/>
    <circle cx="0.5" cy="0.916667" r="0.0123711" fill="rgb( 0, 0, 255 )"/>
    <circle cx="0.632844" cy="0.845587" r="0.0123711" fill="rgb( 0, 0, 255 )"/>
    <circle cx="0.75" cy="0.75" r="0.0123711" fill="rgb( 0, 0, 255 )"/>
    <circle cx="0.845587" cy="0.632844" r="0.0123711" fill="rgb( 0, 0, 255 )"/>
    <circle cx="0.916667" cy="0.5" r="0.0123711" fill="rgb( 0, 0, 255 )"/>
    <circle cx="0.963388" cy="0.359835" r="0.0123711" fill="rgb( 0, 0, 255 )"/>
    <circle cx="0.988835" cy="0.222489" r="0.0123711" fill="rgb( 0, 0, 255 )"/>
    <circle cx="0.99858" cy="0.0989507" r="0.0123711" fill="rgb( 0, 0, 255 )"/>
    <circle cx="1" cy="0" r="0.0123711" fill="rgb( 0, 0, 255 )"/>
    <circle cx="1" cy="0" r="0.0123711" fill="rgb( 0, 0, 255 )"/>
    <circle cx="0.99858" cy="-0.0989507" r="0.0123711" fill="rgb( 0, 0, 255 )"/>
    <circle cx="0.988835" cy="-0.222489" r="0.0123711" fill="rgb( 0, 0, 255 )"/>
    <circle cx="0.963388" cy="-0.359835" r="0.0123711" fill="rgb( 0, 0, 255 )"/>
    <circle cx="0.916667" cy="-0.5" r="0.0123711" fill="rgb( 0, 0, 255 )"/>
    <circle cx="0.845587" cy="-0.632844" r="0.0123711" fill="rgb( 0, 0, 255 )"/>
    <circle cx="0.75" cy="-0.75" r="0.0123711" fill="rgb( 0, 0, 255 )"/>
    <circle cx="0.632844" cy="-0.845587" r="0.0123711" fill="rgb( 0, 0, 255 )"/>
    <circle cx="0.5" cy="-0.916667" r="0.0123711" fill="rgb( 0, 0, 255 )"/>
    <circle cx="0.359835" cy="-0.963388" r="0.0123711" fill="rgb( 0, 0, 255 )"/>
    <circle cx="0.222489" cy="-0.988835" r="0.0123711" fill="rgb( 0, 0, 255 )"/>
    <circle cx="0.0989507" cy="-0.99858" r="0.0123711" fill="rgb( 0, 0, 255 )"/>
    <circle cx="0" cy="-1" r="0.0123711" fill="rgb( 0, 0, 255 )"/>
    <circle cx="0" cy="-1" r="0.0123711" fill="rgb( 0, 0, 255 )"/>
    <circle cx="-0.0989507" cy="-0.99858" r="0.0123711" fill="rgb( 0, 0, 255 )"/>
    <circle cx="-0.222489" cy="-0.988835" r="0.0123711" fill="rgb( 0, 0, 255 )"/>
    <circle cx="-0.359835" cy="-0.963388" r="0.0123711" fill="rgb( 0, 0, 255 )"/>
    <circle cx="-0.5" cy="-0.916667" r="0.0123711" fill="rgb( 0, 0, 255 )"/>
    <circle cx="-0.632844" cy="-0.845587" r="0.0123711" fill="rgb( 0, 0, 255 )"/>
    <circle cx="-0.75" cy="-0.75" r="0.0123711" fill="rgb( 0, 0, 255 )"/>
    <circle cx="-0.845587" cy="-0.632844" r="0.0123711" fill="rgb( 0, 0, 255 )"/>
    <circle cx="-0.916667" cy="-0.5" r="0.0123711" fill="rgb( 0, 0, 255 )"/>
    <circle cx="-0.963388" cy="-0.359835" r="0.0123711" fill="rgb( 0, 0, 255 )"/>
    <circle cx="-0.988835" cy="-0.222489" r="0.0123711" fill="rgb( 0, 0, 255 )"/>
    <circle cx="-0.99858" cy="-0.0989507" r="0.0123711" fill="rgb( 0, 0, 255 )"/>
    <circle cx="-1" cy="0" r="0.0123711" fill="rgb( 0, 0, 255 )"/>
    <circle cx="-1" cy="0" r="0.0123711" fill="rgb( 0, 0, 255 )"/>
    <circle cx="-0.99858" cy="0.0989507" r="0.0123711" fill="rgb( 0, 0, 255 )"/>
    <circle cx="-0.988835" cy="0.222489" r="0.0123711" fill="rgb( 0, 0, 255 )"/>
    <circle cx="-0.963388" cy="0.359835" r="0.0123711" fill="rgb( 0, 0, 255 )"/>
    <circle cx="-0.916667" cy="0.5" r="0.0123711" fill="rgb( 0, 0, 255 )"/>
    <circle cx="-0.845587" cy="0.632844" r="0.0123711" fill="rgb( 0, 0, 255 )"/>
    <circle cx="-0.75" cy="0.75" r="0.0123711" fill="rgb( 0, 0, 255 )"/>
    <circle cx="-0.632844" cy="0.845587" r="0.0123711" fill="rgb( 0, 0, 255 )"/>
    <circle cx="-0.5" cy="0.916667" r="0.0123711" fill="rgb( 0, 0, 255 )"/>
    <circle cx="-0.359835" cy="0.963388" r="0.0123711" fill="rgb( 0, 0, 255 )"/>
    <circle cx="-0.222489" cy="0.988835" r="0.0123711" fill="rgb( 0, 0, 255 )"/>
    <circle cx="-0.0989507" cy="0.99858" r="0.0123711" fill="rgb( 0, 0, 255 )"/>
    <circle cx="0" cy="1" r="0.0123711" fill="rgb( 0, 0, 255 )"/>
  </g>
</svg>