<svg width="1000" height="555.556" xmlns="http://www.w3.org/2000/svg">
  <g transform="translate(237.222, 225.222) scale(210.222, -210.222)">
    <line x1="0" y1="1" x2="-1" y2="1" stroke="rgb( 255, 192, 192 )" stroke-width="0.0142706"/>
    <line x1="2" y1="0" x2="1" y2="1" stroke="rgb( 255, 192, 192 )" stroke-width="0.0142706"/>
    <line x1="0" y1="-1" x2="3.5" y2="-1.5" stroke="rgb( 255, 192, 192 )" stroke-width="0.0142706"/>
    <line x1="-1" y1="0" x2="-1" y2="-1" stroke="rgb( 255, 192, 192 )" stroke-width="0.0142706"/>
    <line x1="0" y1="1" x2="1" y2="1" stroke="rgb( 192, 192, 255 )" stroke-width="0.0142706"/>
    <line x1="2" y1="0" x2="3.5" y2="-1.5" stroke="rgb( 192, 192, 255 )" stroke-width="0.0142706"/>
    <line x1="0" y1="-1" x2="-1" y2="-1" stroke="rgb( 192, 192, 255 )" stroke-width="0.0142706"/>
    <line x1="-1" y1="0" x2="-1" y2="1" stroke="rgb( 192, 192, 255 )" stroke-width="0.0142706"/>
    <circle cx="0" cy="1" r="0.0570825" fill="rgb( 255, 128, 255 )"/>
    <circle cx="2" cy="0" r="0.0570825" fill="rgb( 255, 128, 255 )"/>
    <circle cx="0" cy="-1" r="0.0570825" fill="rgb( 255, 128, 255 )"/>
    <circle cx="-1" cy="0" r="0.0570825" fill="rgb( 255, 128, 255 )"/>
    <circle cx="0" cy="1" r="0.0285412" fill="rgb( 0, 0, 255 )"/>
    <circle cx="0.139081" cy="0.991445" r="0.0285412" fill="rgb( 0, 0, 255 )"/>
    <circle cx="0.292893" cy="0.965926" r="0.0285412" fill="rgb( 0, 0, 255 )"/>
    <circle cx="0.458804" cy="0.92388" r="0.0285412" fill="rgb( 0, 0, 255 )"/>
    <circle cx="0.633975" cy="0.866025" r="0.0285412" fill="rgb( 0, 0, 255 )"/>
    <circle cx="0.815408" cy="0.793353" r="0.0285412" fill="rgb( 0, 0, 255 )"/>
    <circle cx="1" cy="0.707107" r="0.0285412" fill="rgb( 0, 0, 255 )"/>
    <circle cx="1.18459" cy="0.608761" r="0.0285412" fill="rgb( 0, 0, 255 )"/>
    <circle cx="1.36603" cy="0.5" r="0.0285412" fill="rgb( 0, 0, 255 )"/>
    <circle cx="1.5412" cy="0.382683" r="0.0285412" fill="rgb( 0, 0, 255 )"/>
    <circle cx="1.70711" cy="0.258819" r="0.0285412" fill="rgb( 0, 0, 255 )"/>
    <circle cx="1.86092" cy="0.130526" r="0.0285412" fill="rgb( 0, 0, 255 )"/>
    <circle cx="2" cy="0" r="0.0285412" fill="rgb( 0, 0, 255 )"/>
    <circle cx="2" cy="-1.11022e-16" r="0.0285412" fill="rgb( 0, 0, 255 )"/>
    <circle cx="2.16585" cy="-0.191512" r="0.0285412" fill="rgb( 0, 0, 255 )"/>
    <circle cx="2.26897" cy="-0.371191" r="0.0285412" fill="rgb( 0, 0, 255 )"/>
    <circle cx="2.3076" cy="-0.535965" r="0.0285412" fill="rgb( 0, 0, 255 )"/>
    <circle cx="2.28109" cy="-0.683013" r="0.0285412" fill="rgb( 0, 0, 255 )"/>
    <circle cx="2.18988" cy="-0.809819" r="0.0285412" fill="rgb( 0, 0, 255 )"/>
    <circle cx="2.03553" cy="-0.914214" r="0.0285412" fill="rgb( 0, 0, 255 )"/>
    <circle cx="1.8207" cy="-0.994411" r="0.0285412" fill="rgb( 0, 0, 255 )"/>
    <circle cx="1.54904" cy="-1.04904" r="0.0285412" fill="rgb( 0, 0, 255 )"/>
    <circle cx="1.22521" cy="-1.07716" r="0.0285412" fill="rgb( 0, 0, 255 )"/>
    <circle cx="0.854755" cy="-1.0783" r="0.0285412" fill="rgb( 0, 0, 255 )"/>
    <circle cx="0.444009" cy="-1.05243" r="0.0285412" fill="rgb( 0, 0, 255 )"/>
    <circle cx="0" cy="-1" r="0.0285412" fill="rgb( 0, 0, 255 )"/>
    <circle cx="-6.12323e-17" cy="-1" r="0.0285412" fill="rgb( 0, 0, 255 )"/>
    <circle cx="-0.130526" cy="-0.991445" r="0.0285412" fill="rgb( 0, 0, 255 )"/>
    <circle cx="-0.258819" cy="-0.965926" r="0.0285412" fill="rgb( 0, 0, 255 )"/>
    <circle cx="-0.382683" cy="-0.92388" r="0.0285412" fill="rgb( 0, 0, 255 )"/>
    <circle cx="-0.5" cy="-0.866025" r="0.0285412" fill="rgb( 0, 0, 255 )"/>
    <circle cx="-0.608761" cy="-0.793353" r="0.0285412" fill="rgb( 0, 0, 255 )"/>
    <circle cx="-0.707107" cy="-0.707107" r="0.0285412" fill="rgb( 0, 0, 255 )"/>
    <circle cx="-0.793353" cy="-0.608761" r="0.0285412" fill="rgb( 0, 0, 255 )"/>
    <circle cx="-0.866025" cy="-0.5" r="0.0285412" fill="rgb( 0, 0, 255 )"/>
    <circle cx="-0.92388" cy="-0.382683" r="0.0285412" fill="rgb( 0, 0, 255 )"/>
    <circle cx="-0.965926" cy="-0.258819" r="0.0285412" fill="rgb( 0, 0, 255 )"/>
    <circle cx="-0.991445" cy="-0.130526" r="0.0285412" fill="rgb( 0, 0, 255 )"/>
    <circle cx="-1" cy="0" r="0.0285412" fill="rgb( 0, 0, 255 )"/>
    <circle cx="-1" cy="6.12323e-17" r="0.0285412" fill="rgb( 0, 0, 255 )"/>
    <circle cx="-0.991445" cy="0.130526" r="0.0285412" fill="rgb( 0, 0, 255 )"/>
    <circle cx="-0.965926" cy="0.258819" r="0.0285412" fill="rgb( 0, 0, 255 )"/>
    <circle cx="-0.92388" cy="0.382683" r="0.0285412" fill="rgb( 0, 0, 255 )"/>
    <circle cx="-0.866025" cy="0.5" r="0.0285412" fill="rgb( 0, 0, 255 )"/>
    <circle cx="-0.793353" cy="0.608761" r="0.0285412" fill="rgb( 0, 0, 255 )"/>
    <circle cx="-0.707107" cy="0.707107" r="0.0285412" fill="rgb( 0, 0, 255 )"/>
    <circle cx="-0.608761" cy="0.793353" r="0.0285412" fill="rgb( 0, 0, 255 )"/>
    <circle cx="-0.5" cy="0.866025" r="0.0285412" fill="rgb( 0, 0, 255 )"/>
    <circle cx="-0.382683" cy="0.92388" r="0.0285412" fill="rgb( 0, 0, 255 )"/>
    <circle cx="-0.258819" cy="0.965926" r="0.0285412" fill="rgb( 0, 0, 255 )"/>
    <circle cx="-0.130526" cy="0.991445" r="0.0285412" fill="rgb( 0, 0, 255 )"/>
    <circle cx="0" cy="1" r="0.0285412" fill="rgb( 0, 0, 255 )"/>
  </g>
</svg>